<svg width="45" height="24" viewBox="0 0 45 24" fill="none" xmlns="http://www.w3.org/2000/svg">
<g clip-path="url(#clip0_0_90)">
<path d="M39.4986 9.20117H16.7414C15.5328 9.20117 14.553 10.2202 14.553 11.4772C14.553 12.7341 15.5328 13.7531 16.7414 13.7531H39.4986C40.7073 13.7531 41.6871 12.7341 41.6871 11.4772C41.6871 10.2202 40.7073 9.20117 39.4986 9.20117Z" fill="#F6F6F6"/>
<path d="M10.5977 11.7529C10.5977 10.6171 9.7123 9.69629 8.62015 9.69629C7.528 9.69629 6.64264 10.6171 6.64264 11.7529C6.64264 12.8887 7.528 13.8095 8.62015 13.8095C9.7123 13.8095 10.5977 12.8887 10.5977 11.7529Z" fill="#F6F6F6"/>
<path d="M4.00623 11.7529C4.00623 10.6171 3.12087 9.69629 2.02872 9.69629C0.93657 9.69629 0.0512085 10.6171 0.0512085 11.7529C0.0512085 12.8887 0.93657 13.8095 2.02872 13.8095C3.12087 13.8095 4.00623 12.8887 4.00623 11.7529Z" fill="#F6F6F6"/>
<path d="M42.464 9.52213L34.9504 1.708C34.0958 0.819169 32.7101 0.819169 31.8555 1.708C31.0009 2.59682 31.0009 4.03789 31.8555 4.92672L39.3691 12.7409C40.2237 13.6297 41.6094 13.6297 42.464 12.7409C43.3186 11.852 43.3186 10.411 42.464 9.52213Z" fill="#F6F6F6"/>
<path d="M31.8559 17.715L39.3695 9.90087C40.2241 9.01204 41.6098 9.01204 42.4644 9.90087C43.319 10.7897 43.319 12.2308 42.4644 13.1196L34.9508 20.9337C34.0962 21.8226 32.7105 21.8226 31.8559 20.9337C31.0012 20.0449 31.0012 18.6038 31.8559 17.715Z" fill="#F6F6F6"/>
</g>
<defs>
<clipPath id="clip0_0_90">
<rect width="44.8236" height="23.3083" fill="white" transform="translate(0.0512085 0.0986328)"/>
</clipPath>
</defs>
</svg>
