<svg width="34" height="17" viewBox="0 0 34 17" fill="none" xmlns="http://www.w3.org/2000/svg">
<g clip-path="url(#clip0_0_122)">
<path d="M30.922 7.63916H13.66C12.7432 7.63916 12 8.38237 12 9.29916C12 10.216 12.7432 10.9592 13.66 10.9592H30.922C31.8388 10.9592 32.582 10.216 32.582 9.29916C32.582 8.38237 31.8388 7.63916 30.922 7.63916Z" fill="#D23166"/>
<path d="M9 9.5C9 8.67157 8.32843 8 7.5 8C6.67157 8 6 8.67157 6 9.5C6 10.3284 6.67157 11 7.5 11C8.32843 11 9 10.3284 9 9.5Z" fill="#D23166"/>
<path d="M4 9.5C4 8.67157 3.32843 8 2.5 8C1.67157 8 1 8.67157 1 9.5C1 10.3284 1.67157 11 2.5 11C3.32843 11 4 10.3284 4 9.5Z" fill="#D23166"/>
<path d="M33.1709 7.87308L27.4716 2.1738C26.8234 1.52553 25.7723 1.52553 25.1241 2.1738C24.4758 2.82207 24.4758 3.87312 25.1241 4.52139L30.8233 10.2207C31.4716 10.8689 32.5227 10.8689 33.1709 10.2207C33.8192 9.5724 33.8192 8.52135 33.1709 7.87308Z" fill="#D23166"/>
<path d="M25.125 13.8487L30.8242 8.14938C31.4725 7.50111 32.5236 7.50111 33.1718 8.14938C33.8201 8.79765 33.8201 9.84871 33.1718 10.497L27.4726 16.1963C26.8243 16.8445 25.7732 16.8445 25.125 16.1963C24.4767 15.548 24.4767 14.4969 25.125 13.8487Z" fill="#D23166"/>
</g>
<defs>
<clipPath id="clip0_0_122">
<rect width="34" height="17" fill="white"/>
</clipPath>
</defs>
</svg>
