<svg width="70" height="73" viewBox="0 0 70 73" fill="none" xmlns="http://www.w3.org/2000/svg">
<path d="M22.5833 26.4182C22.5142 22.0217 17.7623 29.6228 18.3937 36.8767C18.9858 43.6654 33.7606 55.2797 41.9434 52.1703C61.3427 43.4187 22.8028 40.8872 22.5833 26.4182ZM21.9262 31.8634C26.4952 40.4206 38.9163 39.8601 44.1127 47.4318C38.1779 42.9695 23.2419 41.0628 21.9262 31.8634V31.8634Z" fill="#D23166"/>
<path d="M30.1891 20.0063C30.0983 16.6342 26.0333 20.2316 24.7908 25.2034C23.8694 29.3385 33.1917 35.0518 39.6957 38.0848C43.2281 39.73 46.3351 41.1794 48.3676 42.834C59.4934 34.5289 30.5454 33.1358 30.1891 20.0063ZM28.4276 22.2388C29.1051 25.1203 32.605 29.4793 42.6143 34.5101C35.735 33.1183 27.6634 28.8357 28.433 22.2388H28.4276Z" fill="#D23166"/>
<path d="M46.8013 14.3149C41.9355 15.0618 33.456 14.0682 33.1985 20.3487C32.9411 26.6291 47.5993 30.4156 50.9489 35.2493C52.9366 26.7109 44.2918 25.0966 46.8013 14.3149ZM35.4194 20.9816C34.4072 16.1894 40.7391 15.4935 43.842 17.3358C40.5724 17.4847 36.5061 17.777 35.4207 20.9816H35.4194Z" fill="#D23166"/>
<path d="M28.8717 52.4762C21.6374 48.5877 18.8773 42.3824 18.8231 46.7106C18.7689 51.0388 18.8746 70.7718 22.006 71.9424C24.7729 72.9775 36.0003 60.4555 38.4555 57.8328C40.9108 55.2101 36.106 56.3699 28.8717 52.4762Z" fill="#D23166"/>
<path opacity="0.7" d="M38.0863 12.9202C39.8776 12.5435 41.7366 12.408 43.3301 12.2954C44.4547 12.2163 45.5157 12.1399 46.3964 12.0071L55.17 6.3381C51.2709 3.6164 46.851 1.71167 42.1814 0.740751C37.5118 -0.23017 32.691 -0.246805 28.0146 0.691861L38.0863 12.9202Z" fill="#D23166"/>
<path opacity="0.8" d="M9.14376 57.975V38.8789L1.29297 43.9526C2.76319 49.171 5.45244 53.9743 9.14376 57.975Z" fill="#D23166" fill-opacity="0.2"/>
<path opacity="0.4" d="M58.0138 42.6453L69.9174 36.9012C69.9661 36.1503 70 35.3968 70 34.6338C70.0096 27.6712 67.8886 20.8689 63.9161 15.1221L58.0138 42.6453Z" fill="#D23166"/>
<path opacity="0.2" d="M49.2933 49.4581C48.2093 51.6544 45.4234 53.1763 42.9248 54.3039L42.8584 54.3334L42.7921 54.3589C42.1427 54.6003 41.4697 54.7742 40.7839 54.8778C41.08 55.2229 41.2886 55.6329 41.3923 56.0738C41.6633 57.2162 41.1688 58.1829 40.7148 58.8078L45.0345 67.8181C46.9778 67.243 48.8666 66.5009 50.6794 65.6004L54.701 46.8516L49.2933 49.4581Z" fill="#D23166"/>
<path opacity="0.2" d="M62.0329 12.6345C60.5743 10.8832 58.9465 9.27687 57.1726 7.83838L49.5969 12.7351L49.105 14.8402C47.9844 19.6578 49.3895 22.1156 51.0169 24.9608C52.6009 27.7296 54.3949 30.8698 53.2526 35.7786L52.8732 37.4104C53.0831 37.8825 53.214 38.3851 53.2608 38.8988C53.5168 41.9223 50.7134 44.014 49.7933 44.7032L49.1158 45.2087C49.3834 45.6616 49.5726 46.1556 49.6754 46.6702L55.323 43.947L62.0329 12.6345Z" fill="#D23166"/>
<path opacity="0.5" d="M16.862 60.6754C16.3823 54.1134 16.4555 47.4213 16.4555 46.6784C16.465 45.9571 16.4853 44.265 17.8267 43.3585C18.0529 43.2078 18.301 43.0921 18.5625 43.0153C17.1343 41.0161 16.1994 38.9767 16.0354 37.0808C15.9615 36.2035 15.9506 35.3222 16.0029 34.4434L11.5098 37.353V60.308C12.7049 61.3759 13.9725 62.3614 15.3037 63.2578L17.0097 62.4346C16.9555 61.8768 16.9067 61.2908 16.862 60.6754Z" fill="#D23166"/>
<path opacity="0.2" d="M57.3915 45.5494L53.416 64.0838C57.756 61.4261 61.456 57.8614 64.2568 53.6394C67.0577 49.4174 68.8915 44.6404 69.6298 39.6431L57.3915 45.5494Z" fill="#D23166"/>
<path opacity="0.45" d="M39.0008 60.7036C35.6784 64.2877 33.0186 66.9961 30.8506 69.0168C34.8054 69.493 38.8137 69.2898 42.6986 68.4161L39.0008 60.7036Z" fill="#D23166"/>
<path opacity="0.7" d="M35.6316 13.6442L25.4692 1.30859C21.8722 2.3111 18.4619 3.8803 15.3691 5.95592L23.2484 22.3905C24.3161 19.8429 25.9895 17.656 27.6413 16.7979C28.8513 16.169 29.839 16.3112 30.4542 16.5418C30.8564 16.6948 31.2209 16.9312 31.5233 17.235C32.358 15.4504 33.8661 14.3482 35.6316 13.6442Z" fill="#D23166"/>
<path opacity="0.4" d="M21.1137 23.4297C21.3413 23.2576 21.5904 23.1152 21.8548 23.006L14.3563 7.36523C13.6978 7.87609 13.0528 8.4017 12.4336 8.9568V34.5546L17.321 31.397C18.0392 27.7606 19.5757 24.5815 21.1137 23.4297Z" fill="#D23166"/>
<path opacity="0.5" d="M9.14343 36.0833V11.2939C5.4321 15.324 2.73323 20.1631 1.26582 25.4186C-0.201595 30.6741 -0.396199 36.1979 0.697804 41.5418L9.14343 36.0833Z" fill="#D23166"/>
</svg>
