<svg width="14" height="19" viewBox="0 0 14 19" fill="none" xmlns="http://www.w3.org/2000/svg">
<path fill-rule="evenodd" clip-rule="evenodd" d="M6.14186 0.0393169C4.59043 0.242847 3.15992 0.957022 2.0532 2.08049C0.933892 3.21669 0.238647 4.67999 0.0494696 6.29772C-0.0501168 7.14968 -0.00105314 7.90583 0.212164 8.80493C0.835509 11.4331 2.86769 14.7027 5.94863 18.0343C6.74321 18.8936 6.85925 19 7.00184 19C7.1402 19 7.35743 18.7951 8.20253 17.8672C11.5976 14.1397 13.5976 10.677 13.9474 7.92095C14.2135 5.82414 13.4595 3.62783 11.9417 2.07881C10.8997 1.01537 9.61841 0.345243 8.1117 0.0756403C7.64809 -0.00733159 6.6391 -0.025939 6.14186 0.0393169ZM7.78339 3.95029C8.97055 4.28129 9.80357 5.13882 10.1212 6.35677C10.2211 6.74003 10.2155 7.51648 10.11 7.91355C9.8955 8.72028 9.41271 9.41099 8.76507 9.83754C6.68451 11.2079 3.95957 9.81689 3.79961 7.30289C3.74099 6.38199 4.0794 5.48531 4.73889 4.81381C5.21946 4.32452 5.76595 4.02932 6.43369 3.89837C6.77593 3.83122 7.44925 3.85714 7.78339 3.95029Z" fill="#D23166"/>
</svg>
