<svg width="18" height="18" viewBox="0 0 18 18" fill="none" xmlns="http://www.w3.org/2000/svg">
<path fill-rule="evenodd" clip-rule="evenodd" d="M3.11586 0.0475291C2.67948 0.14219 2.59541 0.207844 1.45491 1.34529C0.459629 2.33792 0.382656 2.42374 0.265891 2.67066C0.0734943 3.07757 0.0254746 3.29865 0.00464254 3.87397C-0.0164014 4.45493 0.0311946 4.83879 0.207208 5.50701C1.26756 9.53274 6.02041 14.8274 10.5694 17.0506C11.9184 17.7098 12.937 17.9966 13.9414 18C14.5562 18.002 14.8672 17.94 15.2933 17.7304C15.5676 17.5954 15.6398 17.5315 16.6301 16.545C17.7393 15.4403 17.8056 15.3567 17.945 14.8886C18.0183 14.6421 18.0183 14.1798 17.945 13.9333C17.8186 13.5086 17.7671 13.4469 16.3643 12.0402C15.624 11.2977 14.923 10.6226 14.8065 10.5399C14.1059 10.0427 13.2064 10.1116 12.6204 10.7075C12.4431 10.8878 12.3749 10.9934 12.2524 11.277C12.1697 11.4684 12.0591 11.6831 12.0066 11.754C11.6692 12.2098 11.0177 12.5001 10.4635 12.4414C9.63732 12.354 8.40466 11.6098 7.36048 10.5679C6.0964 9.30653 5.35082 7.85528 5.53266 7.00998C5.61733 6.61637 5.89447 6.20449 6.22224 5.98507C6.30225 5.93153 6.47099 5.84384 6.59721 5.79026C6.96393 5.63448 7.05414 5.5834 7.22437 5.43516C7.8119 4.92345 7.9405 3.96571 7.51284 3.28671C7.38696 3.0869 4.95229 0.630775 4.65524 0.403961C4.41843 0.223123 4.10761 0.0838587 3.82782 0.0331662C3.56276 -0.014851 3.38706 -0.0112954 3.11586 0.0475291Z" fill="#D23166"/>
</svg>
