<svg width="61" height="74" viewBox="0 0 61 74" fill="none" xmlns="http://www.w3.org/2000/svg">
<path d="M44.877 31.0615C48.1166 29.1852 50.2247 25.5543 50.2247 21.4638C50.2247 15.8581 46.2503 11.2479 41.1552 10.6161C40.3402 5.44388 36.1254 1.48745 31.0507 1.48745C26.1417 1.48745 21.9092 5.2196 20.9828 10.359L20.9924 10.3604C20.9849 10.4158 20.979 10.4714 20.9747 10.5272C15.4233 10.6571 10.9422 15.508 10.9422 21.4624C10.9422 25.5214 13.0285 29.0649 16.1119 30.9549C14.4534 31.5621 13.2499 33.2251 13.2499 35.1999C13.2499 37.6752 15.1299 39.6855 17.4458 39.7033L30.0795 72.9343C30.2017 73.2598 30.4979 73.4704 30.8266 73.4704H30.8347C31.0001 73.4654 31.1599 73.4095 31.2928 73.3102C31.4256 73.211 31.5251 73.0731 31.5777 72.9152L36.9064 57.8813C37.3642 58.4625 38.042 58.8386 38.8081 58.8386C40.184 58.8386 41.3046 57.6433 41.3046 56.1746V47.8459C41.3046 47.3522 41.1607 46.9023 40.9352 46.5112L43.353 39.691C45.6146 39.609 47.4347 37.6342 47.4347 35.1999C47.4347 33.3468 46.3793 31.7535 44.877 31.0615ZM48.6165 21.4624C48.6165 25.732 45.8998 29.4177 42.0083 30.4229C41.8285 30.4739 41.6707 30.5835 41.5594 30.7344C41.448 30.8853 41.3895 31.0691 41.3929 31.2571V34.5393C41.3929 35.0617 40.9949 35.487 40.5046 35.487C40.0156 35.487 39.6162 35.0617 39.6162 34.5393V31.4691C39.6162 31.0356 39.3133 30.669 38.9099 30.6171C35.1854 30.1316 32.2596 27.1461 31.5152 23.3552C36.9567 23.0953 41.3101 18.3033 41.3101 12.4336C41.3101 12.4063 41.306 12.3817 41.306 12.3557C45.4407 13.0449 48.6165 16.8605 48.6165 21.4638V21.4624ZM26.7842 59.6988H34.5429L33.7551 61.917H27.6264L26.7842 59.6988ZM26.1309 57.9825L25.4381 56.1609H35.7953L35.1515 57.9825H26.1309ZM36.4038 54.4446H24.7875L23.9453 52.2263H37.1917L36.4052 54.4446H36.4038ZM37.7988 50.51H23.2906L22.4213 48.2207H38.6097L37.7988 50.51ZM39.2183 46.5043H21.7666L20.9244 44.2861H40.0047L39.2169 46.5043H39.2183ZM20.2724 42.5698L19.1831 39.7074H28.1887C28.349 41.0135 29.3868 42.0296 30.6541 42.0296C31.9214 42.0296 32.9591 41.0135 33.1181 39.7074H41.6266L40.6119 42.5698H20.2724ZM32.1129 33.3427C31.9442 33.4016 31.7982 33.5127 31.6958 33.66C31.5933 33.8073 31.5397 33.9834 31.5424 34.1632V39.3655C31.5424 39.8893 31.1444 40.3133 30.6554 40.3133C30.1664 40.3133 29.7671 39.8893 29.7671 39.3655V34.1646C29.7671 33.7858 29.5362 33.4534 29.1966 33.3427C27.9497 32.9379 26.9567 32.0544 26.3401 30.9179C28.2118 29.7487 29.7019 27.9667 30.5739 25.825C31.4623 28.0009 32.9917 29.8184 34.9287 30.9891C34.3093 32.09 33.334 32.9447 32.1129 33.3413V33.3427ZM22.5612 10.6913L22.5626 10.6831C23.3422 6.34786 26.9133 3.20241 31.0521 3.20241C35.8211 3.20377 39.7005 7.34483 39.7005 12.4336C39.7035 14.1942 39.2241 15.9214 38.315 17.4253L36.5641 13.8436C36.5194 13.7454 36.4552 13.6575 36.3753 13.5854C36.2955 13.5133 36.2017 13.4584 36.1 13.4243C35.9982 13.3902 35.8905 13.3775 35.7837 13.3871C35.6768 13.3966 35.573 13.4282 35.4788 13.4798C35.2873 13.5936 35.1458 13.7763 35.0828 13.991C35.0198 14.2057 35.04 14.4365 35.1392 14.6368L36.905 18.2554C37.0137 18.4743 37.1944 18.622 37.4008 18.6835C35.8184 20.512 33.5622 21.6662 31.0507 21.6662C29.0004 21.6571 27.0248 20.8901 25.4993 19.5109C25.3851 19.4066 25.2424 19.3394 25.0898 19.3179C24.9372 19.2965 24.7817 19.3218 24.6435 19.3905C24.5022 19.464 24.384 19.5755 24.3019 19.7127C24.2199 19.8498 24.1773 20.0072 24.179 20.1673V24.3385C24.179 24.8623 23.7796 25.2876 23.2906 25.2876C22.7718 25.2876 22.5001 24.8089 22.5001 24.3371C22.4892 19.4452 22.496 11.4845 22.5626 10.6927L22.5612 10.6913ZM12.5518 21.4624C12.5518 16.4748 16.2804 12.409 20.9177 12.2476C20.9014 13.2432 20.8905 14.7394 20.885 17L19.8636 13.7684C19.7223 13.3198 19.2659 13.0764 18.8449 13.2309C18.4238 13.3814 18.1983 13.8696 18.3396 14.3182L19.5634 18.1843C19.6121 18.3505 19.712 18.4968 19.8488 18.6021C19.9855 18.7073 20.152 18.766 20.3241 18.7697C20.4295 18.7684 20.5335 18.7455 20.6298 18.7022C20.726 18.6589 20.8124 18.5962 20.8837 18.518C20.8837 20.1222 20.8837 22.0382 20.8905 24.3398C20.8905 25.8333 21.9445 27.0039 23.2906 27.0039C24.668 27.0039 25.7872 25.8073 25.7872 24.3398V21.829C26.9612 22.5805 28.2794 23.0745 29.6557 23.2786C28.8625 27.5003 25.3852 30.695 21.2015 30.695C19.8219 30.6927 18.4652 30.3399 17.257 29.6693L20.0062 27.3499C20.1751 27.2032 20.2826 26.9975 20.3071 26.7742C20.3315 26.551 20.2711 26.3267 20.138 26.1464C20.0761 26.0584 19.9966 25.9843 19.9047 25.9289C19.8127 25.8735 19.7104 25.838 19.604 25.8246C19.4977 25.8112 19.3898 25.8203 19.2872 25.8512C19.1845 25.8821 19.0894 25.9342 19.0079 26.0042L16.0087 28.5356C15.9489 28.5876 15.9082 28.6518 15.8661 28.7161C13.853 27.0231 12.5518 24.4041 12.5518 21.4624ZM14.8609 35.1999C14.8609 33.6627 16.0318 32.41 17.4743 32.41H25.3335C26.0344 33.4498 27.0142 34.2679 28.1588 34.7691V37.9897H17.4743C16.0318 37.9897 14.8596 36.7384 14.8596 35.1999H14.8609ZM30.7994 70.2593L28.2797 63.632H33.1479L30.7981 70.2593H30.7994ZM39.6964 56.1759C39.6964 56.6983 39.297 57.1237 38.8081 57.1237C38.3177 57.1237 37.9197 56.6997 37.9197 56.1759V55.023L39.6964 50.0108V56.1759ZM43.2117 37.9897H33.152V34.7677C34.2956 34.2666 35.2744 33.449 35.9746 32.41H38.0066V34.5379C38.0066 36.0081 39.1273 37.2034 40.5032 37.2034C41.8806 37.2034 42.9998 36.0081 42.9998 34.5379V32.41H43.2117C44.6515 32.41 45.8251 33.6613 45.8251 35.1999C45.8251 36.737 44.6529 37.9884 43.2117 37.9884V37.9897ZM2.62654 6.69796C3.18617 7.02618 3.94547 7.83716 4.25245 8.4348C4.57844 9.07073 5.08646 9.4345 5.64608 9.4345C6.20435 9.4345 6.71372 9.07073 7.03972 8.4348C7.34534 7.83716 8.106 7.02618 8.66562 6.69796C9.26192 6.35196 9.60286 5.80903 9.60286 5.21139C9.60286 4.61376 9.26192 4.07219 8.66562 3.72482C8.106 3.3966 7.34534 2.58562 7.03972 1.98799C6.71372 1.35343 6.20571 0.988281 5.64608 0.988281C5.08781 0.988281 4.57844 1.35206 4.25245 1.98662C3.94547 2.58426 3.18617 3.3966 2.62654 3.72346C2.02888 4.07082 1.6893 4.61239 1.6893 5.21139C1.6893 5.80766 2.02888 6.35059 2.62654 6.69796ZM5.64608 2.84547C6.09704 3.70431 7.05873 4.72863 7.86286 5.21139C7.05737 5.69415 6.09704 6.71847 5.64608 7.57732C5.19512 6.71847 4.23343 5.69415 3.43067 5.21139C4.23343 4.72863 5.19376 3.70431 5.64608 2.84547ZM55.9215 39.8729C55.3619 39.5447 54.6026 38.7337 54.2956 38.1374C53.9696 37.5015 53.4616 37.1364 52.902 37.1364C52.3423 37.1364 51.8357 37.5015 51.5097 38.1361C51.2013 38.7337 50.4434 39.5447 49.8838 39.8729C49.2875 40.2203 48.9465 40.7618 48.9465 41.3595C48.9465 41.9557 49.2875 42.4987 49.8838 42.846C50.442 43.1743 51.2027 43.9839 51.5097 44.5801C51.8357 45.2161 52.3423 45.5812 52.902 45.5812C53.4629 45.5812 53.9696 45.2161 54.2956 44.5815C54.6026 43.9839 55.3619 43.1729 55.9215 42.8447C56.5164 42.4987 56.8587 41.9557 56.8587 41.3595C56.8587 40.7618 56.5164 40.2203 55.9215 39.8729ZM52.902 43.724C52.4496 42.8666 51.4893 41.8409 50.6852 41.3581C51.4893 40.8767 52.4496 39.8538 52.902 38.9935C53.3543 39.8524 54.3133 40.8767 55.1174 41.3595C54.3146 41.8409 53.3516 42.8652 52.902 43.724ZM47.4347 9.29501C49.134 9.29501 50.5181 7.81801 50.5181 6.00459C50.5181 4.1898 49.134 2.71418 47.4347 2.71418C45.7355 2.71418 44.3513 4.1898 44.3513 6.00459C44.3513 7.81938 45.7355 9.29501 47.4347 9.29501ZM47.4347 4.4305C48.2484 4.4305 48.9085 5.13618 48.9085 6.00323C48.9085 6.87164 48.2484 7.57732 47.4347 7.57732C46.6211 7.57732 45.961 6.87164 45.961 6.00459C45.961 5.13618 46.6211 4.43187 47.4347 4.43187V4.4305ZM10.9435 45.6441C9.24291 45.6441 7.86014 47.1211 7.86014 48.9345C7.86014 50.748 9.24291 52.225 10.9435 52.225C12.6441 52.225 14.0269 50.748 14.0269 48.9345C14.0269 47.1198 12.6441 45.6441 10.9435 45.6441ZM10.9435 50.5073C10.1299 50.5073 9.46975 49.8016 9.46975 48.9345C9.46975 48.0661 10.1299 47.3618 10.9435 47.3618C11.7572 47.3618 12.4173 48.0661 12.4173 48.9345C12.4173 49.8016 11.7572 50.5073 10.9435 50.5073ZM8.23775 20.6761C8.14688 20.5602 8.02536 20.4726 7.88718 20.4232C7.749 20.3739 7.59979 20.3648 7.45672 20.3971L1.58064 21.7674C1.43665 21.8035 1.30494 21.8778 1.19931 21.9827C1.09369 22.0876 1.01803 22.2192 0.980261 22.3637C0.939258 22.511 0.936458 22.6664 0.972129 22.8151C1.0078 22.9638 1.08075 23.1007 1.18401 23.2129L5.07695 27.3567C5.16904 27.4557 5.28498 27.5289 5.4135 27.5694C5.54202 27.6099 5.67876 27.6163 5.81044 27.5879C5.94445 27.5555 6.06821 27.4897 6.17029 27.3965C6.27237 27.3032 6.34949 27.1856 6.39452 27.0545L8.37766 21.5431C8.42994 21.3985 8.44441 21.2428 8.41967 21.091C8.39493 20.9392 8.33182 20.7963 8.23639 20.6761H8.23775ZM5.33774 25.2083L3.36683 23.109L6.34426 22.4143L5.3391 25.2096L5.33774 25.2083ZM60.0263 17.1245L55.62 13.555C55.5068 13.4615 55.3693 13.4026 55.2239 13.3854C55.0784 13.3682 54.9312 13.3933 54.7995 13.4579C54.6649 13.5258 54.5504 13.6284 54.4679 13.7552C54.3853 13.882 54.3376 14.0286 54.3296 14.18L53.9221 20.5831C53.9112 20.7348 53.9399 20.8867 54.0051 21.0239C54.0704 21.1611 54.17 21.2787 54.2942 21.3653C54.4144 21.4471 54.555 21.493 54.6999 21.4978C54.8447 21.5026 54.9881 21.4662 55.1133 21.3927L59.9272 18.559C60.0468 18.4868 60.1471 18.3863 60.2193 18.2662C60.2915 18.146 60.3334 18.01 60.3415 17.8698C60.3522 17.7292 60.3292 17.5881 60.2744 17.4583C60.2195 17.3286 60.1344 17.2141 60.0263 17.1245ZM55.6295 19.1307L55.8346 15.8854L58.069 17.6947L55.6295 19.1307Z" fill="#D23166"/>
</svg>
