<svg width="64" height="66" viewBox="0 0 64 66" fill="none" xmlns="http://www.w3.org/2000/svg">
<path d="M13.0472 19.1711C13.0472 22.9888 15.0694 26.3782 18.1805 28.1282C17.4431 28.4673 16.8193 29.0122 16.3841 29.6974C15.9488 30.3826 15.7206 31.1789 15.7269 31.9907C15.7269 33.8177 16.8607 35.3592 18.4323 35.9383L21.6139 59.4489C21.6668 59.8451 21.9924 60.1386 22.3773 60.1386H42.394C42.7789 60.1386 43.106 59.8451 43.1573 59.4489L46.3486 35.7025C47.0144 35.3387 47.5695 34.8017 47.9554 34.1484C48.3413 33.495 48.5435 32.7496 48.5408 31.9907C48.547 31.1276 48.2865 30.2837 47.7947 29.5745C47.303 28.8652 46.6041 28.3253 45.7937 28.0287C48.7541 26.2659 50.757 22.9599 50.757 19.1728C50.757 13.6163 46.4544 9.08968 41.1255 8.96778L41.1175 8.88757C41.1159 8.8603 41.1239 8.83624 41.1175 8.81058C40.2291 4.01286 36.1654 0.532069 31.4539 0.532069C26.582 0.532069 22.5376 4.2246 21.7534 9.04958C16.8623 9.64148 13.0488 13.9419 13.0488 19.1711H13.0472ZM14.5899 19.1711C14.5899 14.8771 17.6401 11.3161 21.6091 10.6729L21.6059 10.7467C21.6059 16.2245 25.785 20.695 31.0097 20.9388C30.2929 24.4757 27.4865 27.262 23.9103 27.7143C23.7198 27.7416 23.5458 27.8375 23.4209 27.984C23.2961 28.1305 23.2289 28.3175 23.232 28.5099V31.3748C23.2359 31.6051 23.1482 31.8275 22.9882 31.9932C22.8283 32.1589 22.6091 32.2544 22.3789 32.2586C22.1489 32.254 21.9301 32.1583 21.7705 31.9927C21.6109 31.827 21.5235 31.6048 21.5273 31.3748V28.311C21.529 28.1341 21.4718 27.9615 21.3646 27.8207C21.2575 27.6798 21.1066 27.5786 20.9356 27.5331C17.1991 26.5963 14.5899 23.1572 14.5899 19.1728V19.1711ZM39.2396 36.1965L42.8606 39.3774L39.8185 42.0465L35.7821 38.269L37.7915 36.1965H39.2396ZM42.4341 53.2428L41.0421 51.8537L42.827 50.3186L42.4341 53.2428ZM30.8477 58.5378H29.459L26.6798 55.6794L30.3714 52.4392L33.877 55.9344L30.8477 58.5378ZM34.9964 57.0508L36.4878 58.5378H33.2676L34.9964 57.0508ZM29.4686 36.1965C29.6209 37.4156 30.6184 38.362 31.834 38.362C32.3151 38.362 32.7641 38.2112 33.1409 37.9562L33.537 38.3251L30.5671 41.3921L26.8594 37.6867L28.1969 36.1949H29.4686V36.1965ZM25.0297 47.1089L21.9346 50.3026L21.0975 44.1141L21.5353 43.6265L25.0297 47.1089ZM22.5873 42.454L25.8075 38.8609L29.4734 42.5229L26.1234 45.9797L22.5873 42.454ZM26.1426 48.2205L29.2521 51.3211L25.5765 54.5453L22.791 51.6805L26.1426 48.2205ZM27.2379 47.0897L30.5863 43.6345L34.0598 47.1025L30.4372 50.2817L27.2379 47.0897ZM31.68 42.5037L34.6853 39.4014L38.6302 43.0908L35.2449 46.0615L31.6816 42.5037H31.68ZM25.7465 36.5767L25.3649 36.1965H26.0881L25.7465 36.5767ZM23.1374 36.1965L24.6945 37.7509L21.4744 41.3423L20.6052 40.4762L20.0279 36.1949H23.139L23.1374 36.1965ZM22.3676 53.5027L24.393 55.5863L22.8343 56.953L22.3676 53.5027ZM25.4947 56.7188L27.2652 58.5378H23.4228L25.4963 56.7188H25.4947ZM31.5581 51.3965L35.1792 48.2189L38.7281 51.7623L35.0749 54.903L31.5581 51.3965ZM36.3643 47.1779L39.7881 44.1719L43.2215 47.3848L43.1429 47.9623L39.9228 50.7325L36.3627 47.1779H36.3643ZM44.1468 40.505L43.4797 45.4696L40.978 43.1277L44.057 40.4264L44.1468 40.5066V40.505ZM34.6355 37.1943L34.0903 36.6842C34.1432 36.527 34.1801 36.3634 34.2026 36.1949H35.6041L34.6355 37.1943ZM32.6887 31.0219V35.8757C32.6926 36.1061 32.6049 36.3285 32.4449 36.4942C32.285 36.6599 32.0658 36.7554 31.8356 36.7596C31.6056 36.7549 31.3868 36.6593 31.2272 36.4936C31.0676 36.328 30.9802 36.1058 30.984 35.8757V31.0219C30.9859 30.8526 30.9339 30.6871 30.8356 30.5493C30.7373 30.4115 30.5978 30.3085 30.4372 30.2551C29.2918 29.8886 28.3265 29.104 27.7334 28.0576C29.6098 26.9448 31.0763 25.2552 31.9141 23.2406C32.7346 25.213 34.1567 26.8758 35.9778 27.9918C35.3879 29.0699 34.406 29.8797 33.2356 30.2535C33.0745 30.3068 32.9347 30.41 32.8364 30.5481C32.738 30.6863 32.6863 30.8523 32.6887 31.0219ZM17.2712 31.9891C17.2712 30.5551 18.397 29.3857 19.7809 29.3857H19.983V31.3732C19.983 32.7446 21.0575 33.8594 22.3805 33.8594C23.7003 33.8594 24.7763 32.7446 24.7763 31.3732V29.3857H26.728C27.4047 30.3482 28.3268 31.1213 29.4381 31.5865V34.5925H19.7809C18.397 34.5925 17.2712 33.4247 17.2712 31.9891ZM38.7168 58.5362L36.1943 56.021L39.8458 52.8787L42.1711 55.1997L41.7221 58.5362H38.7168ZM44.49 37.9482L44.057 38.3283L41.6291 36.1949H44.4884C44.5701 36.1949 44.6487 36.1757 44.7289 36.1709L44.4884 37.9482H44.49ZM44.49 29.3857C45.6013 29.3857 46.5362 30.1461 46.8634 31.1887H39.6293C39.5258 31.1904 39.4237 31.2125 39.3288 31.2537C39.2339 31.295 39.1481 31.3546 39.0762 31.4291C39.0044 31.5036 38.948 31.5916 38.9103 31.688C38.8725 31.7844 38.8542 31.8872 38.8563 31.9907C38.8544 32.0941 38.8729 32.1968 38.9108 32.293C38.9486 32.3892 39.005 32.477 39.0768 32.5513C39.1486 32.6257 39.2344 32.6851 39.3292 32.7263C39.424 32.7674 39.526 32.7895 39.6293 32.7911H46.8634C46.5362 33.8338 45.6013 34.5925 44.49 34.5925H34.2314V31.5881C35.3239 31.1243 36.2633 30.3614 36.9416 29.3874H44.4884L44.49 29.3857ZM49.2143 19.1711C49.2143 23.9191 45.489 27.7849 40.9106 27.7849C36.8951 27.7849 33.5563 24.803 32.7946 20.865C34.1123 20.6742 35.3762 20.2127 36.507 19.5096V21.8531C36.507 23.2246 37.583 24.3394 38.9044 24.3394C39.0648 24.3394 39.2236 24.3234 39.3743 24.2913C40.4327 24.0619 41.2089 23.0722 41.2089 21.8547C41.2233 15.5219 41.2105 12.2689 41.1832 10.5718C45.635 10.7226 49.2143 14.5178 49.2143 19.1695V19.1711ZM31.4539 2.13452C35.4261 2.13452 38.8531 5.06993 39.602 9.11214L39.6036 9.12177C39.6678 9.85963 39.6742 17.288 39.663 21.8563C39.663 22.2958 39.4016 22.7386 38.9028 22.7386C38.6733 22.7335 38.455 22.638 38.2956 22.4727C38.1361 22.3075 38.0483 22.086 38.0513 21.8563V17.9633C38.0528 17.8125 38.0118 17.6643 37.9329 17.5358C37.8541 17.4073 37.7406 17.3036 37.6055 17.2367C37.5143 17.1949 37.4155 17.1725 37.3152 17.1709C37.3024 17.1709 37.2912 17.1629 37.2784 17.1629C37.2655 17.1629 37.2511 17.1693 37.2383 17.1693C37.1816 17.1735 37.1256 17.1842 37.0715 17.2014C37.0474 17.2078 37.0234 17.211 36.9977 17.2206C36.9192 17.2507 36.8465 17.2941 36.7828 17.3489C35.3073 18.6408 33.4148 19.3557 31.4539 19.362C26.8755 19.362 23.1502 15.4979 23.1502 10.7483C23.1502 6.00028 26.8739 2.13452 31.4539 2.13452ZM52.9428 5.39555C53.48 5.70032 54.2097 6.45744 54.5031 7.01565C54.8158 7.60914 55.3034 7.9492 55.8406 7.9492C56.3778 7.9492 56.8653 7.60754 57.178 7.01565C57.4731 6.45744 58.2028 5.70032 58.74 5.39555C59.3109 5.07154 59.6396 4.56465 59.6396 4.00805C59.6396 3.44984 59.3109 2.94456 58.74 2.61894C58.2011 2.31417 57.4731 1.55706 57.178 0.998848C56.8653 0.408557 56.3778 0.0668945 55.8406 0.0668945C55.3034 0.0668945 54.8175 0.406953 54.5047 0.998848C54.2097 1.55706 53.48 2.31417 52.9444 2.61894C52.3719 2.94296 52.0431 3.44984 52.0431 4.00645C52.0431 4.56465 52.3703 5.06993 52.9412 5.39555H52.9428ZM55.8422 1.80087C56.2752 2.6013 57.1973 3.55891 57.9686 4.00805C57.1989 4.45718 56.2752 5.4148 55.8422 6.21522C55.4092 5.4132 54.4871 4.45718 53.7141 4.00805C54.4871 3.55891 55.4076 2.6013 55.8422 1.80087ZM15.7253 7.81767C17.3578 7.81767 18.6857 6.43979 18.6857 4.74752C18.6857 3.05364 17.3578 1.67576 15.7253 1.67576C14.0928 1.67576 12.7666 3.05364 12.7666 4.74752C12.7666 6.43979 14.0928 7.81767 15.7253 7.81767ZM15.7253 3.27821C16.5063 3.27821 17.1413 3.93587 17.1413 4.74752C17.1413 5.55756 16.5063 6.21522 15.7253 6.21522C14.9443 6.21522 14.3109 5.55756 14.3109 4.74752C14.3109 3.93747 14.9443 3.27821 15.7253 3.27821ZM54.5721 41.7353C52.9396 41.7353 51.6118 43.1148 51.6118 44.8071C51.6118 46.4994 52.9396 47.8773 54.5721 47.8773C56.203 47.8773 57.5308 46.4978 57.5308 44.8071C57.5308 43.1132 56.203 41.7353 54.5721 41.7353ZM54.5721 46.2748C53.7911 46.2748 53.1561 45.6171 53.1561 44.8071C53.1561 43.9971 53.7911 43.3378 54.5721 43.3378C55.3515 43.3378 55.9865 43.9954 55.9865 44.8071C55.9865 45.6171 55.3515 46.2748 54.5721 46.2748ZM53.3533 18.4365C53.2621 18.548 53.2016 18.6814 53.178 18.8235C53.1543 18.9657 53.1684 19.1115 53.2186 19.2465L55.1205 24.3891C55.1747 24.5377 55.2728 24.6663 55.4016 24.758C55.5305 24.8496 55.6841 24.9 55.8422 24.9024C55.944 24.9023 56.0448 24.8817 56.1385 24.8417C56.2322 24.8018 56.3169 24.7433 56.3874 24.6698L60.1239 20.8041C60.2226 20.7004 60.2926 20.5728 60.3269 20.4338C60.3612 20.2949 60.3587 20.1494 60.3196 20.0117C60.2823 19.8758 60.2092 19.7524 60.1079 19.6545C60.0066 19.5566 59.8809 19.4877 59.7439 19.4551L54.1038 18.1766C53.9669 18.1463 53.8243 18.1546 53.6919 18.2005C53.5594 18.2463 53.4422 18.328 53.3533 18.4365ZM58.0312 20.7062L56.1389 22.6664L55.1735 20.0582L58.0312 20.7062ZM7.37833 44.8071C7.37833 45.3637 7.70548 45.869 8.27637 46.193C8.8152 46.4978 9.54326 47.2565 9.83833 47.8131C10.151 48.4066 10.6402 48.7466 11.1758 48.7466C11.713 48.7466 12.2005 48.4066 12.5132 47.8131C12.8083 47.2565 13.5379 46.4978 14.0752 46.193C14.6477 45.869 14.9732 45.3637 14.9732 44.8071C14.9732 44.2489 14.6477 43.7436 14.0752 43.4196C13.5379 43.1148 12.8083 42.3561 12.5132 41.7995C12.2005 41.206 11.713 40.8659 11.1774 40.8659C10.6402 40.8659 10.151 41.206 9.83833 41.7995C9.54486 42.3561 8.8152 43.1148 8.27798 43.4196C7.70548 43.7436 7.37833 44.2489 7.37833 44.8055V44.8071ZM11.1774 42.5999C11.6104 43.402 12.5325 44.358 13.3038 44.8071C12.5325 45.2562 11.6104 46.2139 11.1774 47.0143C10.7444 46.2122 9.82069 45.2562 9.04933 44.8071C9.82069 44.358 10.7428 43.4003 11.1774 42.5999ZM3.85031 21.3847C4.28008 21.6253 4.76439 21.7537 5.25029 21.7537C6.34077 21.7537 7.34145 21.1329 7.85782 20.1368C8.63078 18.6466 8.09195 16.7827 6.65509 15.9807C6.22747 15.7404 5.74556 15.6134 5.2551 15.6118C4.71376 15.6159 4.18401 15.769 3.72382 16.0542C3.26362 16.3393 2.89074 16.7457 2.64597 17.2286C1.87301 18.7188 2.41344 20.5827 3.85031 21.3863V21.3847ZM4.00586 17.9874C4.12291 17.7561 4.30144 17.5615 4.52183 17.4251C4.74222 17.2887 4.99594 17.2158 5.2551 17.2142C5.48923 17.2142 5.71535 17.2736 5.92382 17.3906C6.61018 17.7724 6.86998 18.6659 6.49953 19.3781C6.14192 20.0678 5.2551 20.3517 4.58317 19.9764C4.24941 19.783 4.00311 19.4682 3.89556 19.0977C3.78802 18.7272 3.82753 18.3295 4.00586 17.9874ZM1.42078 33.6846L6.04249 36.3281C6.16316 36.3974 6.30076 36.4317 6.43983 36.4272C6.57891 36.4226 6.71398 36.3794 6.82988 36.3024C6.94795 36.223 7.04302 36.1139 7.10551 35.986C7.16801 35.8582 7.19573 35.7161 7.18589 35.5742L6.793 29.5975C6.78479 29.4554 6.73886 29.3181 6.65994 29.1997C6.58101 29.0812 6.47194 28.986 6.34398 28.9238C6.21747 28.8636 6.07662 28.8401 5.93743 28.856C5.79824 28.8719 5.6663 28.9265 5.55659 29.0136L1.32777 32.3468C1.22439 32.4289 1.14254 32.5349 1.0893 32.6557C1.03606 32.7765 1.01302 32.9085 1.02218 33.0402C1.03134 33.1719 1.07241 33.2994 1.14186 33.4117C1.21131 33.524 1.30704 33.6176 1.42078 33.6846ZM5.35132 31.1887L5.54857 34.2172L3.20724 32.8762L5.35132 31.1871V31.1887ZM62.3402 55.5831H58.4802C58.377 55.5848 58.2751 55.6068 58.1804 55.6478C58.0857 55.6889 58.0001 55.7482 57.9283 55.8224C57.8565 55.8965 57.8 55.9841 57.7621 56.0802C57.7242 56.1762 57.7055 56.2787 57.7072 56.3819C57.7072 56.8263 58.0536 57.184 58.4802 57.184H62.3402C62.4436 57.1823 62.5458 57.1602 62.6407 57.1189C62.7356 57.0777 62.8214 57.0181 62.8932 56.9436C62.965 56.869 63.0214 56.7811 63.0592 56.6847C63.0969 56.5883 63.1152 56.4854 63.1131 56.3819C63.115 56.2786 63.0965 56.1759 63.0587 56.0797C63.0209 55.9835 62.9645 55.8957 62.8927 55.8213C62.8209 55.747 62.7351 55.6875 62.6403 55.6464C62.5455 55.6052 62.4435 55.5832 62.3402 55.5815V55.5831ZM56.6135 56.3819C56.6154 56.2787 56.597 56.1761 56.5593 56.08C56.5215 55.9839 56.4653 55.8962 56.3936 55.8219C56.322 55.7476 56.2364 55.6881 56.1418 55.6468C56.0472 55.6056 55.9454 55.5834 55.8422 55.5815H45.6382C45.5347 55.5832 45.4326 55.6053 45.3377 55.6465C45.2428 55.6878 45.1569 55.7474 45.0851 55.8219C45.0133 55.8964 44.9569 55.9844 44.9192 56.0808C44.8814 56.1772 44.8631 56.2801 44.8652 56.3835C44.8633 56.4869 44.8818 56.5896 44.9196 56.6858C44.9575 56.782 45.0139 56.8698 45.0857 56.9441C45.1575 57.0185 45.2432 57.0779 45.338 57.1191C45.4328 57.1602 45.5348 57.1823 45.6382 57.184H55.8422C55.9455 57.1821 56.0475 57.1598 56.1422 57.1185C56.2369 57.0771 56.3226 57.0175 56.3942 56.943C56.4659 56.8685 56.5221 56.7806 56.5597 56.6843C56.5974 56.5881 56.6157 56.4853 56.6135 56.3819ZM19.1122 56.9851H15.7253C15.622 56.9869 15.52 57.0092 15.4253 57.0505C15.3306 57.0919 15.2449 57.1515 15.1733 57.226C15.1016 57.3005 15.0454 57.3884 15.0078 57.4847C14.9701 57.581 14.9518 57.6837 14.954 57.7871C14.9521 57.8903 14.9705 57.9929 15.0082 58.089C15.046 58.1851 15.1022 58.2728 15.1739 58.3471C15.2455 58.4215 15.3311 58.4809 15.4257 58.5222C15.5203 58.5634 15.6221 58.5856 15.7253 58.5875H19.1122C19.2157 58.5858 19.3178 58.5637 19.4127 58.5225C19.5076 58.4812 19.5935 58.4216 19.6653 58.3471C19.7371 58.2726 19.7935 58.1846 19.8312 58.0882C19.869 57.9919 19.8873 57.889 19.8852 57.7855C19.8871 57.6821 19.8686 57.5794 19.8308 57.4832C19.7929 57.387 19.7365 57.2992 19.6647 57.2249C19.5929 57.1505 19.5072 57.0911 19.4123 57.0499C19.3175 57.0088 19.2156 56.9867 19.1122 56.9851ZM14.3109 57.7855C14.3128 57.6821 14.2943 57.5794 14.2565 57.4832C14.2187 57.387 14.1622 57.2992 14.0904 57.2249C14.0186 57.1505 13.9329 57.0911 13.8381 57.0499C13.7433 57.0088 13.6413 56.9867 13.5379 56.9851H1.3422C1.23887 56.9869 1.13692 57.0092 1.04219 57.0505C0.947467 57.0919 0.861827 57.1515 0.790175 57.226C0.718524 57.3005 0.662269 57.3884 0.624633 57.4847C0.586997 57.581 0.568719 57.6837 0.570845 57.7871C0.568932 57.8903 0.587368 57.9929 0.625101 58.089C0.662833 58.1851 0.719122 58.2728 0.790752 58.3471C0.862382 58.4215 0.947951 58.4809 1.04257 58.5222C1.13719 58.5634 1.239 58.5856 1.3422 58.5875H13.5379C13.6414 58.5858 13.7435 58.5637 13.8384 58.5225C13.9334 58.4812 14.0192 58.4216 14.091 58.3471C14.1628 58.2726 14.2192 58.1846 14.257 58.0882C14.2947 57.9919 14.313 57.889 14.3109 57.7855ZM56.7595 63.8761H47.4118C47.3085 63.8779 47.2065 63.9002 47.1118 63.9415C47.0171 63.9829 46.9314 64.0425 46.8598 64.117C46.7881 64.1915 46.7319 64.2794 46.6942 64.3757C46.6566 64.472 46.6383 64.5747 46.6404 64.6781C46.6385 64.7813 46.657 64.8839 46.6947 64.98C46.7324 65.0761 46.7887 65.1638 46.8604 65.2381C46.932 65.3125 47.0176 65.3719 47.1122 65.4132C47.2068 65.4544 47.3086 65.4766 47.4118 65.4785H56.7595C56.8628 65.4766 56.9648 65.4544 57.0595 65.413C57.1542 65.3717 57.2398 65.3121 57.3115 65.2376C57.3831 65.1631 57.4394 65.0752 57.477 64.9789C57.5147 64.8826 57.533 64.7798 57.5308 64.6765C57.5327 64.5733 57.5143 64.4707 57.4766 64.3746C57.4388 64.2785 57.3825 64.1908 57.3109 64.1164C57.2393 64.0421 57.1537 63.9826 57.0591 63.9414C56.9645 63.9001 56.8627 63.8779 56.7595 63.8761ZM44.6423 63.8761H20.578C20.4745 63.8777 20.3724 63.8998 20.2775 63.9411C20.1825 63.9823 20.0967 64.0419 20.0249 64.1164C19.9531 64.191 19.8967 64.2789 19.8589 64.3753C19.8212 64.4717 19.8029 64.5746 19.805 64.6781C19.8031 64.7814 19.8216 64.8842 19.8594 64.9804C19.8972 65.0766 19.9537 65.1643 20.0255 65.2387C20.0973 65.313 20.183 65.3725 20.2778 65.4137C20.3726 65.4548 20.4746 65.4768 20.578 65.4785H44.6423C44.7456 65.4766 44.8476 65.4544 44.9423 65.413C45.037 65.3717 45.1227 65.3121 45.1943 65.2376C45.266 65.1631 45.3222 65.0752 45.3599 64.9789C45.3975 64.8826 45.4158 64.7798 45.4137 64.6765C45.4156 64.5733 45.3971 64.4707 45.3594 64.3746C45.3217 64.2785 45.2654 64.1908 45.1938 64.1164C45.1221 64.0421 45.0366 63.9826 44.9419 63.9414C44.8473 63.9001 44.7455 63.8779 44.6423 63.8761ZM17.9127 63.8761H7.44087C7.3374 63.8777 7.23528 63.8998 7.14037 63.9411C7.04546 63.9823 6.95963 64.0419 6.88781 64.1164C6.81599 64.191 6.75959 64.2789 6.72186 64.3753C6.68412 64.4717 6.66579 64.5746 6.66792 64.6781C6.666 64.7813 6.68444 64.8839 6.72217 64.98C6.7599 65.0761 6.81619 65.1638 6.88782 65.2381C6.95945 65.3125 7.04502 65.3719 7.13964 65.4132C7.23426 65.4544 7.33607 65.4766 7.43927 65.4785H17.9111C18.0146 65.4768 18.1167 65.4548 18.2116 65.4135C18.3065 65.3722 18.3923 65.3126 18.4642 65.2381C18.536 65.1636 18.5924 65.0756 18.6301 64.9792C18.6678 64.8829 18.6862 64.78 18.6841 64.6765C18.6879 64.4683 18.609 64.2671 18.4647 64.117C18.3204 63.9669 18.1224 63.8803 17.9143 63.8761H17.9127Z" fill="#F6F6F6"/>
<path d="M26.5566 9.04337C26.6321 9.06818 26.7112 9.08064 26.7907 9.08026C26.9572 9.07826 27.1186 9.02276 27.2512 8.92196C27.3837 8.82115 27.4803 8.68039 27.5268 8.52044C27.7467 7.74648 28.1868 7.05314 28.7935 6.52486C29.4002 5.99657 30.1474 5.65611 30.9441 5.54493C31.1514 5.52227 31.3414 5.4188 31.4729 5.25694C31.6044 5.09509 31.6668 4.88792 31.6465 4.68035C31.6406 4.57725 31.6143 4.47636 31.569 4.38356C31.5237 4.29076 31.4604 4.2079 31.3828 4.13982C31.3052 4.07174 31.2148 4.01979 31.1169 3.98701C31.019 3.95424 30.9156 3.94128 30.8126 3.9489C30.6667 3.96173 27.1948 4.30179 26.0546 8.03763C25.9263 8.45949 26.1508 8.91023 26.5566 9.04337ZM18.8061 14.0095C18.6891 14.1138 15.942 16.6241 16.6572 21.154C16.6719 21.2556 16.7066 21.3534 16.7591 21.4417C16.8117 21.53 16.8812 21.607 16.9636 21.6684C17.0459 21.7298 17.1396 21.7744 17.2392 21.7995C17.3388 21.8246 17.4424 21.8298 17.544 21.8148C17.7498 21.7762 17.9321 21.6581 18.0515 21.4861C18.1709 21.3141 18.2179 21.102 18.1823 20.8957C17.6114 17.2866 19.7186 15.3104 19.8164 15.2222C20.1371 14.9334 20.1724 14.4298 19.8966 14.0945C19.8322 14.015 19.7522 13.9494 19.6616 13.9018C19.571 13.8542 19.4717 13.8256 19.3696 13.8176C19.2676 13.8096 19.165 13.8226 19.0681 13.8556C18.9712 13.8885 18.8821 13.9409 18.8061 14.0095ZM43.2954 19.2066C43.3988 19.2048 43.5007 19.1825 43.5954 19.1412C43.6902 19.0998 43.7758 19.0402 43.8475 18.9657C43.9191 18.8912 43.9754 18.8033 44.013 18.707C44.0506 18.6107 44.0689 18.508 44.0668 18.4046V14.6158C44.0689 14.5125 44.0506 14.4097 44.013 14.3134C43.9754 14.2172 43.9191 14.1293 43.8475 14.0548C43.7758 13.9803 43.6902 13.9206 43.5954 13.8793C43.5007 13.8379 43.3988 13.8157 43.2954 13.8138C43.192 13.8155 43.0898 13.8376 42.9949 13.8788C42.9 13.9201 42.8142 13.9797 42.7424 14.0542C42.6706 14.1287 42.6142 14.2167 42.5764 14.3131C42.5387 14.4095 42.5204 14.5124 42.5225 14.6158V18.4062C42.5225 18.8489 42.8673 19.2082 43.2954 19.2082V19.2066ZM43.2954 24.3428C43.3986 24.3409 43.5004 24.3187 43.5951 24.2775C43.6897 24.2362 43.7753 24.1768 43.8469 24.1024C43.9185 24.0281 43.9748 23.9404 44.0125 23.8443C44.0503 23.7482 44.0687 23.6456 44.0668 23.5424V21.024C44.0687 20.9208 44.0503 20.8182 44.0125 20.7221C43.9748 20.626 43.9185 20.5383 43.8469 20.464C43.7753 20.3897 43.6897 20.3302 43.5951 20.2889C43.5004 20.2477 43.3986 20.2255 43.2954 20.2236C43.192 20.2253 43.0898 20.2474 42.9949 20.2886C42.9 20.3299 42.8142 20.3895 42.7424 20.464C42.6706 20.5385 42.6142 20.6265 42.5764 20.7229C42.5387 20.8193 42.5204 20.9221 42.5225 21.0256V23.544C42.5208 23.6472 42.5394 23.7498 42.5774 23.8458C42.6153 23.9418 42.6717 24.0294 42.7435 24.1036C42.8153 24.1777 42.901 24.237 42.9957 24.2781C43.0904 24.3191 43.1922 24.3411 43.2954 24.3428Z" fill="#F6F6F6"/>
</svg>
