<svg width="58" height="64" viewBox="0 0 58 64" fill="none" xmlns="http://www.w3.org/2000/svg">
<path d="M53.4235 0.570313H48.709C46.246 0.570313 44.242 2.54824 44.242 4.97975V10.8547C43.2461 10.3583 42.1715 10.0401 41.0666 9.91454C40.31 5.48787 36.4094 2.10041 31.712 2.10041C27.1706 2.10041 23.2514 5.29553 22.3947 9.69493L22.4032 9.69636C22.396 9.74393 22.3913 9.79184 22.3889 9.8399C21.8183 9.84885 21.2496 9.9089 20.6897 10.0193C20.2732 9.52151 19.7531 9.12129 19.1659 8.84678C18.5788 8.57227 17.9389 8.43014 17.2911 8.43037H4.76113C2.31807 8.43037 0.331299 10.3925 0.331299 12.8039V39.2304C0.331299 41.6418 2.3195 43.6025 4.76113 43.6025H7.92367V58.5289C7.92367 60.2169 9.31541 61.5905 11.0261 61.5905C12.7368 61.5905 14.1272 60.2169 14.1272 58.5289V43.6025H17.2911C19.2507 43.6025 20.9142 42.3394 21.4964 40.594L30.8152 63.2656C30.9296 63.5441 31.2014 63.7249 31.5046 63.7249H31.5132C31.6619 63.7237 31.8067 63.6779 31.9293 63.5935C32.0519 63.5091 32.1466 63.39 32.2012 63.2512L43.1006 34.8066C43.5011 34.7923 43.883 34.7162 44.2435 34.5913V41.128C44.2435 43.3097 45.8569 45.1197 47.9667 45.4714V60.5499C47.9667 62.2379 49.357 63.6115 51.0677 63.6115C52.7784 63.6115 54.1702 62.2379 54.1702 60.5499V45.4714C56.2785 45.1197 57.892 43.3097 57.892 41.1294V4.97975C57.892 2.54824 55.8866 0.570312 53.425 0.570312L53.4235 0.570313ZM27.7628 51.9348H34.9461L34.218 53.8338H28.5452L27.7657 51.9348H27.7628ZM27.1592 50.465L26.5198 48.9062H36.1033L35.5082 50.465H27.1592ZM25.9148 47.4364L25.1352 45.5374H37.3963L36.6668 47.4364H25.9148ZM24.5316 44.0676L23.7249 42.1083H38.7094L37.9584 44.0676H24.5316ZM23.1213 40.6385L22.3403 38.7395H39.9996L39.2715 40.6385H23.1213ZM7.14555 42.1327V9.90305H15.2414V13.2876C13.8608 14.9469 13.104 17.0397 13.103 19.2013C13.103 21.4434 13.9069 23.5031 15.2414 25.1179V30.9426L15.2385 30.9627L15.2414 30.9843V42.1342H7.14555V42.1327ZM16.729 26.5562C17.0952 26.8404 17.4814 27.0973 17.8876 27.3284C17.4628 27.4719 17.0751 27.6843 16.729 27.9542V26.5562ZM16.729 30.9412C16.7406 30.3069 17.0009 29.7028 17.4534 29.2597C17.9059 28.8167 18.5141 28.5704 19.1463 28.5743H26.4211C27.0884 29.4782 27.994 30.1772 29.0358 30.5924V33.3497H19.1477C17.8204 33.3497 16.7419 32.2904 16.7304 30.9828V30.9412H16.729ZM32.6961 29.3709C32.5444 29.4154 32.411 29.508 32.3159 29.6347C32.2208 29.7614 32.1691 29.9156 32.1683 30.0742V34.5267C32.1676 34.6342 32.1457 34.7404 32.1041 34.8394C32.0624 34.9384 32.0017 35.0281 31.9255 35.1036C31.8492 35.179 31.7589 35.2387 31.6597 35.2791C31.5605 35.3195 31.4544 35.3399 31.3473 35.3391C31.2401 35.3401 31.1338 35.3198 31.0344 35.2795C30.935 35.2392 30.8446 35.1796 30.7682 35.1041C30.6918 35.0286 30.631 34.9388 30.5892 34.8397C30.5475 34.7407 30.5256 34.6343 30.5248 34.5267V30.0742C30.5241 29.9156 30.4723 29.7614 30.3772 29.6347C30.2821 29.508 30.1488 29.4154 29.997 29.3709C28.8854 29.0408 27.9404 28.2988 27.3537 27.2954C29.0882 26.2967 30.4608 24.7699 31.2729 22.9362C32.1023 24.8096 33.5166 26.3613 35.3022 27.3571C34.7125 28.3295 33.7837 29.0472 32.6961 29.3709ZM21.7367 37.2697L20.7297 34.8195H29.0659C29.1417 35.3717 29.4146 35.8776 29.8339 36.2431C30.2532 36.6087 30.7904 36.8093 31.3459 36.8075C32.5188 36.8075 33.48 35.9377 33.6273 34.8195H41.5014L40.5617 37.2697H21.7381H21.7367ZM33.6573 33.3512V30.5924C34.6988 30.1771 35.6039 29.4781 36.2706 28.5743H38.1515V30.3972C38.1515 31.6546 39.1885 32.6794 40.463 32.6794C41.736 32.6794 42.773 31.6546 42.773 30.3972V28.5743H42.9676C44.3021 28.5743 45.3877 29.6451 45.3877 30.9627C45.3877 32.279 44.3021 33.3512 42.9676 33.3512H33.6588H33.6573ZM46.8768 30.9627C46.8764 30.4546 46.7751 29.9517 46.5786 29.4834C46.3821 29.0151 46.0944 28.5908 45.7325 28.2355V26.6408C46.7039 25.9109 47.5241 24.9977 48.1469 23.9524H53.425V27.7446C53.425 28.1494 53.7568 28.4781 54.1687 28.4781C54.5807 28.4781 54.9125 28.1494 54.9125 27.7432V23.9538H56.4015V36.0726H45.731V33.6885C46.0937 33.3336 46.3818 32.9095 46.5786 32.4411C46.7754 31.9727 46.8767 31.4696 46.8768 30.9613V30.9627ZM54.9125 22.4826V9.03466H56.4015V22.484H54.914L54.9125 22.4826ZM48.709 2.04013H53.4235C55.067 2.04013 56.4015 3.35779 56.4015 4.97975V7.56484H54.914V5.95724C54.9132 5.85985 54.8933 5.76357 54.8555 5.6739C54.8176 5.58423 54.7625 5.50294 54.6932 5.43468C54.624 5.36642 54.5421 5.31253 54.4521 5.27609C54.3621 5.23965 54.2658 5.22138 54.1687 5.22233C53.7568 5.22233 53.425 5.55246 53.425 5.95724V7.56484H45.731V4.97975C45.731 3.35779 47.067 2.04013 48.709 2.04013ZM45.731 9.03466H53.4235V22.484H48.8564C49.2546 21.4357 49.4591 20.3233 49.46 19.2013C49.46 16.1756 47.9939 13.49 45.731 11.7791V9.03466ZM47.971 19.2013C47.971 22.8572 45.4564 26.0122 41.8547 26.8734C41.6938 26.9108 41.5501 27.0015 41.4468 27.1309C41.3435 27.2604 41.2867 27.4209 41.2855 27.5867V30.3972C41.2845 30.5046 41.2625 30.6108 41.2207 30.7097C41.1788 30.8086 41.118 30.8983 41.0416 30.9736C40.9652 31.0489 40.8748 31.1084 40.7756 31.1486C40.6763 31.1889 40.5701 31.2091 40.463 31.2082C40.247 31.2097 40.0392 31.1252 39.8853 30.9731C39.7314 30.8211 39.6439 30.6139 39.642 30.3972V27.7676C39.6406 27.5867 39.5732 27.4125 39.4525 27.2781C39.3317 27.1437 39.1661 27.0585 38.9869 27.0384C35.5397 26.6222 32.832 24.0672 32.1426 20.8233C37.1775 20.5994 41.2082 16.4971 41.2082 11.4719L41.2054 11.4044C45.0316 11.9944 47.971 15.2613 47.971 19.2013ZM23.8551 9.98056L23.8579 9.97339C24.5788 6.26297 27.8844 3.57022 31.7135 3.57022C36.1276 3.57022 39.7192 7.11557 39.7192 11.4719C39.7192 15.8297 36.129 19.375 31.7135 19.375C29.8393 19.375 28.0233 18.7221 26.5756 17.5277C26.4663 17.4379 26.3341 17.3808 26.194 17.3627C26.0538 17.3447 25.9115 17.3666 25.7832 17.4258C25.6557 17.484 25.5475 17.5777 25.4714 17.6957C25.3954 17.8138 25.3546 17.9512 25.3541 18.0918V21.663C25.3531 21.7704 25.3311 21.8766 25.2893 21.9755C25.2474 22.0745 25.1866 22.1641 25.1102 22.2394C25.0339 22.3147 24.9434 22.3742 24.8442 22.4145C24.7449 22.4547 24.6387 22.4749 24.5316 22.474C24.051 22.474 23.7993 22.0649 23.7993 21.6601C23.7878 17.4732 23.795 10.6581 23.8565 9.98056H23.8551ZM22.3103 21.6644C22.3103 22.9419 23.2858 23.9452 24.5316 23.9452C25.8046 23.9452 26.8417 22.9204 26.8417 21.663V19.5143C27.9411 20.1628 29.1581 20.5854 30.4219 20.7573C29.6881 24.3687 26.4698 27.1045 22.5978 27.1045C18.1822 27.1045 14.592 23.5591 14.592 19.2028C14.592 14.9326 18.0421 11.4518 22.3346 11.314C22.306 12.8714 22.296 15.8541 22.3103 21.663V21.6644ZM19.0633 10.5102C18.2194 10.8475 17.4356 11.2997 16.7304 11.848V9.90162H17.2911C17.962 9.90162 18.5713 10.1327 19.0648 10.5102H19.0633ZM1.82031 39.2319V12.8025C1.82031 11.2021 3.1391 9.89875 4.76113 9.89875H5.65654V42.1313H4.76113C3.14053 42.1313 1.82031 40.8294 1.82031 39.229V39.2319ZM12.6381 58.5289C12.634 58.9543 12.462 59.3606 12.1598 59.659C11.8577 59.9574 11.45 60.1234 11.0261 60.1207C10.6017 60.1238 10.1935 59.9577 9.89098 59.659C9.58848 59.3603 9.41645 58.9533 9.41267 58.5275V43.6025H12.6381V58.5303V58.5289ZM20.2334 39.2304C20.2334 40.8309 18.9131 42.1327 17.2911 42.1327H16.7304V33.9712C17.4115 34.5127 18.2531 34.8107 19.122 34.8181L20.2334 37.5195V39.2304ZM31.4803 60.9762L29.1488 55.3036H33.6545L31.4803 60.9776V60.9762ZM51.0677 62.1417C50.6436 62.1448 50.2355 61.9789 49.9331 61.6805C49.6306 61.3821 49.4584 60.9755 49.4543 60.5499V45.5374H52.6797V60.5513C52.6752 60.9764 52.503 61.3825 52.2009 61.6805C51.8988 61.9786 51.4914 62.1444 51.0677 62.1417ZM53.425 44.0676H48.709C47.067 44.0676 45.731 42.7499 45.731 41.128V37.5424H56.4015V41.128C56.4015 42.7499 55.067 44.0676 53.4235 44.0676H53.425Z" fill="#F6F6F6"/>
<path d="M54.1691 34.6558C54.5811 34.6558 54.9129 34.3257 54.9129 33.9209V31.1492C54.9122 31.0519 54.8923 30.9558 54.8545 30.8662C54.8168 30.7766 54.7618 30.6954 54.6927 30.6271C54.6236 30.5589 54.5419 30.505 54.452 30.4685C54.3622 30.4319 54.2661 30.4135 54.1691 30.4143C53.7572 30.4143 53.4253 30.7444 53.4253 31.1492V33.9194C53.4253 34.3271 53.7572 34.6558 54.1691 34.6558ZM31.0945 6.69201C31.259 6.70062 35.121 6.90732 36.261 10.6622C36.3193 10.8505 36.4496 11.008 36.6232 11.1002C36.7969 11.1925 36.9999 11.212 37.1879 11.1546C37.2807 11.1279 37.3674 11.0829 37.4429 11.0224C37.5183 10.9619 37.5811 10.8869 37.6275 10.8019C37.6739 10.7169 37.7031 10.6235 37.7133 10.527C37.7235 10.4306 37.7146 10.3332 37.687 10.2402C36.5256 6.41929 32.9053 5.28823 31.1532 5.22364C31.0563 5.21862 30.9594 5.23292 30.8681 5.2657C30.7768 5.29849 30.6929 5.34912 30.6212 5.41465C30.5495 5.48019 30.4915 5.55933 30.4504 5.64752C30.4094 5.7357 30.3862 5.83117 30.3822 5.9284C30.376 6.12438 30.4475 6.31481 30.5811 6.45796C30.7146 6.6011 30.8992 6.68527 31.0945 6.69201ZM42.3357 15.3042C42.3586 15.3142 44.6687 16.3276 44.9919 19.2802C45.0029 19.3771 45.0329 19.4709 45.08 19.5561C45.1272 19.6414 45.1907 19.7166 45.2668 19.7772C45.3429 19.8379 45.4302 19.8829 45.5237 19.9097C45.6171 19.9364 45.715 19.9444 45.8115 19.9333C45.908 19.9237 46.0016 19.8952 46.0871 19.8492C46.1725 19.8033 46.2481 19.7408 46.3093 19.6654C46.3706 19.59 46.4165 19.5033 46.4442 19.41C46.4719 19.3168 46.481 19.219 46.4709 19.1223C46.0561 15.3257 43.0523 14.0095 42.9236 13.955C42.7431 13.8771 42.5392 13.8736 42.3561 13.9453C42.1731 14.017 42.0255 14.1582 41.9452 14.3382C41.907 14.4273 41.8867 14.5231 41.8857 14.6201C41.8846 14.7171 41.9028 14.8133 41.9391 14.9032C41.9755 14.993 42.0293 15.0748 42.0973 15.1436C42.1654 15.2125 42.2464 15.2671 42.3357 15.3042ZM3.67158 12.2397C3.26107 12.2397 2.9278 12.5698 2.9278 12.9746V27.044C2.9278 27.4503 3.26107 27.779 3.67158 27.779C4.08353 27.779 4.41537 27.4488 4.41537 27.044V12.9746C4.41462 12.8773 4.39479 12.7812 4.35701 12.6916C4.31922 12.602 4.26423 12.5208 4.19516 12.4526C4.12609 12.3843 4.0443 12.3304 3.95447 12.2939C3.86463 12.2573 3.76851 12.2389 3.67158 12.2397ZM3.67158 29.4856C3.26107 29.4856 2.9278 29.8157 2.9278 30.2205V33.2893C2.9278 33.6955 3.26107 34.0242 3.67158 34.0242C4.08353 34.0242 4.41537 33.6955 4.41537 33.2893V30.2205C4.41462 30.1232 4.39479 30.0271 4.35701 29.9375C4.31922 29.8479 4.26423 29.7667 4.19516 29.6985C4.12609 29.6302 4.0443 29.5763 3.95447 29.5398C3.86463 29.5033 3.76851 29.4848 3.67158 29.4856ZM19.6974 13.9822C19.5758 14.0468 16.7194 15.5941 16.5763 18.4821C16.5723 18.5793 16.5874 18.6764 16.6209 18.7677C16.6543 18.859 16.7054 18.9428 16.7712 19.0143C16.8369 19.0858 16.9161 19.1435 17.0042 19.1842C17.0923 19.2249 17.1875 19.2478 17.2844 19.2515H17.3215C17.5107 19.2525 17.6931 19.1808 17.8312 19.0511C17.9693 18.9213 18.0526 18.7434 18.0639 18.5539C18.164 16.5171 20.3525 15.3042 20.404 15.2769C20.4895 15.2321 20.5652 15.1707 20.6268 15.0962C20.6883 15.0217 20.7345 14.9356 20.7626 14.843C20.7907 14.7505 20.8001 14.6532 20.7904 14.5569C20.7806 14.4606 20.7519 14.3672 20.7058 14.2822C20.6103 14.1097 20.4512 13.9816 20.2627 13.9255C20.0741 13.8694 19.8711 13.8898 19.6974 13.9822Z" fill="#F6F6F6"/>
</svg>
