<svg width="17" height="14" viewBox="0 0 17 14" fill="none" xmlns="http://www.w3.org/2000/svg">
<path d="M13.4769 14C13.3859 14 13.295 14 13.204 14C13.1963 13.9964 13.1888 13.9911 13.1807 13.9895C13.046 13.9638 12.9274 13.9041 12.8174 13.8234C12.0925 13.2915 11.367 12.7601 10.6418 12.2285C10.0952 11.8281 9.54831 11.4281 9.00267 11.0264C8.96654 10.9998 8.94795 11.004 8.91718 11.0331C8.62026 11.3138 8.32165 11.5929 8.02357 11.8724C7.61826 12.2523 7.21189 12.631 6.80815 13.0127C6.65848 13.1542 6.48518 13.2141 6.28173 13.1903C6.03754 13.1619 5.86486 13.0383 5.78084 12.8043C5.72433 12.6469 5.67507 12.4868 5.62224 12.3279C5.49473 11.944 5.36649 11.5604 5.23951 11.1763C5.08732 10.7162 4.93681 10.2554 4.78451 9.79528C4.60533 9.25385 4.42467 8.71283 4.24602 8.17118C4.23772 8.14598 4.22606 8.13442 4.20222 8.12707C4.07723 8.08842 3.95287 8.04767 3.82799 8.00891C3.31019 7.848 2.79217 7.68783 2.27437 7.52692C1.65836 7.33545 1.04266 7.14335 0.426551 6.95208C0.335699 6.92383 0.248838 6.88886 0.178047 6.82279C-0.0799099 6.58216 -0.0948244 6.07035 0.383803 5.88938C0.8096 5.72836 1.23666 5.5704 1.66298 5.41085C2.02565 5.27515 2.38812 5.13861 2.75089 5.00312C3.20326 4.83413 3.65595 4.66587 4.10842 4.49698C4.44988 4.36957 4.79113 4.24154 5.13248 4.11393C5.54095 3.96121 5.94941 3.80881 6.35778 3.6562C6.71898 3.52124 7.07997 3.38596 7.44128 3.25131C7.89396 3.08262 8.34686 2.91457 8.79954 2.746C9.26357 2.57312 9.7275 2.39982 10.1915 2.22704C10.6197 2.0676 11.0484 1.9089 11.4766 1.74936C11.9097 1.58803 12.3424 1.42544 12.7757 1.26485C13.3989 1.03388 14.0225 0.804601 14.6458 0.574057C15.1561 0.385316 15.6664 0.196049 16.1796 0.0149751C16.2261 -0.00140982 16.2735 -0.00508592 16.3188 0.00762287C16.5143 0.0626593 16.6683 0.171472 16.7551 0.360843C16.7716 0.396659 16.7808 0.435941 16.7933 0.473542C16.7933 0.526057 16.7933 0.578468 16.7933 0.630984C16.7894 0.640437 16.7839 0.649574 16.7818 0.659342C16.7298 0.9048 16.6783 1.15026 16.6264 1.39572C16.5597 1.71113 16.4924 2.02643 16.4263 2.34194C16.3519 2.69674 16.2789 3.05185 16.2048 3.40675C16.1492 3.6728 16.0928 3.93863 16.0369 4.20467C15.9529 4.60547 15.8693 5.00648 15.785 5.40728C15.7122 5.75357 15.638 6.09955 15.5656 6.44583C15.4731 6.8876 15.3825 7.32978 15.2898 7.77154C15.2256 8.07844 15.1585 8.38482 15.094 8.69182C15.0016 9.1318 14.9108 9.57199 14.819 10.0121C14.7628 10.2816 14.7061 10.5511 14.6494 10.8205C14.5815 11.1427 14.5132 11.4649 14.4457 11.7872C14.3906 12.0499 14.3368 12.3129 14.2812 12.5755C14.2199 12.8652 14.1643 13.1566 14.0928 13.4439C14.0306 13.6938 13.8826 13.8787 13.6272 13.9598C13.578 13.9755 13.5271 13.9868 13.4769 14ZM6.32847 11.5918C6.33173 11.5913 6.33488 11.5907 6.33813 11.5902C6.35347 11.4294 6.36859 11.2685 6.38435 11.1078C6.41806 10.7638 6.45283 10.4199 6.48591 10.0759C6.51196 9.80495 6.53664 9.53375 6.5607 9.26256C6.56563 9.20721 6.58013 9.16383 6.62561 9.12329C7.04405 8.75022 7.45955 8.37389 7.87579 7.9983C8.32722 7.59099 8.77843 7.18336 9.22975 6.77584C9.68475 6.36496 10.14 5.95429 10.5945 5.54277C11.1359 5.0528 11.6766 4.5622 12.2175 4.07171C12.7273 3.60936 13.2383 3.14837 13.7415 2.67878C13.7773 2.64527 13.7811 2.6062 13.7777 2.5603C13.7706 2.46252 13.5935 2.41211 13.508 2.46809C13.2496 2.6374 12.9843 2.7961 12.7233 2.96152C12.0451 3.39121 11.3676 3.82184 10.6903 4.25288C10.0425 4.66524 9.39528 5.07864 8.74808 5.49183C8.09048 5.91164 7.43298 6.33156 6.77559 6.75179C6.24896 7.08842 5.72286 7.42588 5.19592 7.76188C5.17103 7.77774 5.16399 7.7896 5.17334 7.81859C5.20443 7.9148 5.23142 8.01238 5.26104 8.10911C5.42268 8.63584 5.58516 9.16226 5.74639 9.6891C5.9178 10.2491 6.08795 10.8096 6.25884 11.3697C6.28131 11.444 6.30515 11.5178 6.32847 11.5918Z" fill="#D23166"/>
</svg>
