<svg width="18" height="11" viewBox="0 0 18 11" fill="none" xmlns="http://www.w3.org/2000/svg">
<path fill-rule="evenodd" clip-rule="evenodd" d="M16.61 1.68028C16.73 1.29028 16.61 1.00028 16.05 1.00028H14.19C14.0168 0.98731 13.8442 1.03103 13.698 1.12483C13.5519 1.21864 13.4403 1.35744 13.38 1.52028C12.7993 2.87919 12.0283 4.14858 11.09 5.29028C10.66 5.71028 10.46 5.85028 10.23 5.85028C10 5.85028 9.94 5.71028 9.94 5.32028V1.68028C9.94 1.21028 9.8 1.00028 9.41 1.00028H6.48C6.42088 0.99621 6.36153 1.00385 6.30537 1.02278C6.24921 1.0417 6.19734 1.07153 6.15274 1.11056C6.10814 1.14958 6.07169 1.19703 6.04548 1.25019C6.01927 1.30334 6.00381 1.36114 6 1.42028C6 1.87028 6.67 1.97028 6.74 3.22028V5.93028C6.74 6.52028 6.63 6.63028 6.39 6.63028C5.76 6.63028 4.23 4.34028 3.32 1.72028C3.15 1.21028 3 1.00028 2.5 1.00028H0.64C0.11 1.00028 0 1.25028 0 1.52028C0 2.00028 0.63 4.43028 2.94 7.63028C3.55128 8.60035 4.38392 9.4116 5.36957 9.99742C6.35521 10.5832 7.46575 10.9269 8.61 11.0003C9.79 11.0003 9.94 10.7403 9.94 10.2903V8.63028C9.94 8.10028 10.05 8.00028 10.42 8.00028C10.79 8.00028 11.17 8.13028 12.28 9.19028C13.54 10.4303 13.74 10.9903 14.45 10.9903H16.31C16.84 10.9903 17.11 10.7303 16.96 10.2103C16.5621 9.40996 16.0312 8.68298 15.39 8.06028C15 7.55028 14.3 7.00028 14.11 6.73028C13.92 6.46028 13.91 6.22028 14.11 5.91028C14.11 5.91028 16.37 2.75028 16.61 1.68028Z" fill="#D23166"/>
</svg>
