<svg width="66" height="65" viewBox="0 0 66 65" fill="none" xmlns="http://www.w3.org/2000/svg">
<path d="M56.9166 20.4113L56.8758 20.3414C56.8195 20.2253 56.7542 20.114 56.6815 20.0084L49.021 6.87733C48.469 5.93153 47.4417 5.34399 46.3398 5.34399H19.9754C18.8717 5.34399 17.8434 5.93291 17.2918 6.88128L9.50637 20.2725C9.43624 20.3933 9.3857 20.5195 9.34999 20.6478C9.24039 20.9411 9.18018 21.2581 9.18018 21.5889V56.1759C9.18018 58.2505 10.8826 59.9383 12.9751 59.9383H53.3387C55.4312 59.9383 57.1335 58.2505 57.1335 56.1759V21.462C57.1335 21.4156 57.1322 21.3695 57.1296 21.3238C57.1516 21.016 57.0843 20.6985 56.9166 20.4113ZM34.826 8.54406H46.2646L52.2908 18.8736H34.826V8.54406ZM20.0506 8.54406H31.5982V18.8736H14.045L20.0506 8.54406ZM53.9059 56.1759C53.9059 56.486 53.6514 56.7384 53.3387 56.7384H12.9751C12.6623 56.7384 12.4078 56.486 12.4078 56.1759V22.0737H53.9059V56.1759Z" fill="#D23166"/>
<path d="M40.4831 34.137C39.8531 33.5123 38.8312 33.5123 38.2008 34.137L30.9949 41.2814L28.224 38.5341C27.5939 37.9095 26.5719 37.9095 25.9417 38.5341C25.3114 39.1589 25.3114 40.1721 25.9417 40.7971L29.854 44.6755C30.169 44.988 30.5821 45.1442 30.9949 45.1442C31.4079 45.1442 31.8211 44.988 32.1361 44.6755L40.4831 36.3998C41.1135 35.775 41.1135 34.7618 40.4831 34.137Z" fill="#D23166"/>
</svg>
