<svg width="64" height="44" viewBox="0 0 64 44" fill="none" xmlns="http://www.w3.org/2000/svg">
<path d="M61.0214 19.3857L56.7467 17.5705L53.1167 10.6398C52.1355 8.74198 50.1453 7.55936 47.9729 7.57313H41.722V5.8405C41.722 2.70496 39.1712 0.147217 35.9757 0.147217H6.09446C2.89892 0.147217 0.376105 2.71873 0.376105 5.8405V32.3812C0.348077 34.2926 1.9038 35.8604 3.85196 35.8879C3.86598 35.8879 3.87999 35.8879 3.90804 35.8879H4.65085C4.65085 36.0254 4.63684 36.0803 4.63684 36.1629C4.62282 40.0959 7.86042 43.2999 11.8689 43.3137C15.8773 43.3275 19.143 40.1508 19.1569 36.2178C19.1569 36.1904 19.1569 36.1767 19.1569 36.1491C19.1569 36.0529 19.1569 36.0116 19.143 35.8741H43.2918C43.2918 36.0116 43.2918 36.0665 43.2918 36.1491C43.2777 40.0822 46.5153 43.2862 50.5238 43.2999C54.5323 43.3137 57.7978 40.137 57.8118 36.2042C57.8118 36.1767 57.8118 36.1629 57.8118 36.1354C57.8118 36.0392 57.8118 35.9979 57.8118 35.8604H59.6198C61.5681 35.8604 63.1517 34.3064 63.1517 32.3949C63.1517 32.3812 63.1517 32.3674 63.1517 32.3399V22.5762C63.1798 21.2285 62.339 19.9497 61.0214 19.3857ZM11.911 40.5771C9.44417 40.5771 7.45396 38.6244 7.45396 36.2042C7.45396 33.7839 9.44417 31.8312 11.911 31.8312C14.3777 31.8312 16.3679 33.7839 16.3679 36.2042C16.3679 38.6108 14.3637 40.5771 11.911 40.5771ZM38.9188 33.1651H18.4842C17.307 30.6484 14.728 29.0395 11.911 29.0532C9.07977 29.0395 6.51493 30.6348 5.33761 33.1651H3.90804C3.47355 33.1651 3.17922 32.835 3.17922 32.4087V25.3266H38.9188V33.1651ZM38.9188 22.5762H3.17922V5.85409C3.17922 4.24519 4.45464 2.9113 6.09446 2.9113H35.9757C37.6154 2.92507 38.9328 4.24519 38.9188 5.8405V22.5762ZM41.722 10.3373H47.9729C49.0801 10.3235 50.1173 10.9148 50.6359 11.8911L53.4391 17.2131H41.722V10.3373ZM50.5657 40.5771C48.0992 40.5771 46.109 38.6244 46.109 36.2042C46.109 33.7839 48.0992 31.8312 50.5657 31.8312C53.0325 31.8312 55.0227 33.7839 55.0227 36.2042C55.0227 38.6108 53.0325 40.5771 50.5657 40.5771ZM60.3626 32.4087C60.3626 32.835 60.0683 33.1651 59.6338 33.1651H57.1392C55.4433 29.6032 51.1265 28.0632 47.4963 29.7272C45.9548 30.4284 44.7074 31.6524 43.9925 33.1651H41.722V19.9635H55.4573L59.9141 21.8887C60.1946 22.0262 60.3766 22.3287 60.3626 22.6313V32.4087Z" fill="#D23166"/>
</svg>
