<svg width="55" height="51" viewBox="0 0 55 51" fill="none" xmlns="http://www.w3.org/2000/svg">
<path fill-rule="evenodd" clip-rule="evenodd" d="M14.5258 0.235056C13.841 0.349899 12.9145 0.850168 12.484 1.3376C11.9972 1.88899 11.7961 2.33496 9.87075 7.13283L8.12727 11.4778H6.67488C5.87597 11.4778 4.91735 11.5337 4.54457 11.602C2.78383 11.9246 1.41804 13.0749 0.713151 14.8288L0.439307 15.5104L0.40709 30.3912C0.386869 39.7107 0.416687 45.5411 0.486833 45.9922C0.828995 48.1938 2.55626 49.8896 4.78059 50.208C5.8642 50.3631 46.1784 50.3649 47.2795 50.2099C49.0861 49.9556 50.6209 48.7307 51.3129 46.9914C51.4667 46.6049 51.5106 45.887 51.5604 42.9479L51.6208 39.3742L51.9722 39.3029C52.5368 39.1883 53.2521 38.7323 53.5545 38.2944C54.0692 37.5489 54.0892 37.2416 54.0535 30.6184L54.0199 24.3707L53.7512 23.8281C53.4269 23.1731 52.8751 22.7311 52.1554 22.5496L51.6208 22.4148L51.563 18.849C51.5099 15.5696 51.486 15.2367 51.2665 14.7046C50.7489 13.4492 49.8796 12.5339 48.6912 11.993C47.7801 11.5782 47.0701 11.4778 45.0484 11.4778H43.2483L29.7839 5.90113C21.3281 2.39891 16.0858 0.2864 15.6911 0.222106C15.3455 0.165763 15.0626 0.125437 15.0626 0.132367C15.0626 0.139409 14.821 0.185642 14.5258 0.235056ZM26.2037 7.04445L36.8833 11.4714L33.987 11.4746L31.0906 11.4778L23.8192 9.09198C19.82 7.77986 16.3836 6.7064 16.1829 6.70651C15.5104 6.70708 15.2633 7.0666 14.3794 9.32985L13.5627 11.421L12.1569 11.453C11.05 11.4783 10.7635 11.4541 10.809 11.3394C12.0312 8.26581 13.9311 3.61153 14.09 3.30198C14.3256 2.84283 14.6571 2.63678 15.1791 2.62519C15.388 2.62053 19.7382 4.36431 26.2037 7.04445ZM20.1481 10.4466L23.1739 11.4601L19.6709 11.4689L16.1679 11.4778L16.4822 10.6542C16.6549 10.2013 16.8288 9.74129 16.8685 9.6319C16.9081 9.52251 16.9813 9.43311 17.0314 9.43311C17.0813 9.43311 18.4839 9.88919 20.1481 10.4466ZM47.802 14.2763C48.396 14.5978 48.8732 15.1804 49.0529 15.8035C49.1143 16.0163 49.1646 17.5805 49.1646 19.2796V22.3687L42.9668 22.4105C36.9538 22.4512 36.744 22.46 35.9306 22.7048C32.8896 23.6202 30.6221 25.9646 29.8948 28.9452C29.6393 29.9925 29.6463 31.8677 29.9098 32.8903C30.682 35.8887 32.847 38.1283 35.8551 39.0406L36.8833 39.3524L43.0239 39.3958L49.1646 39.4392L49.1639 42.526C49.1635 44.3516 49.1137 45.7901 49.0421 46.0469C48.8872 46.6013 48.2099 47.3499 47.6222 47.6159C47.1855 47.8137 46.2293 47.823 26.0219 47.8254L4.87873 47.8279L4.25918 47.5155C3.85339 47.3109 3.52105 47.0332 3.2961 46.7106L2.95268 46.218L2.91887 31.1482C2.89659 21.1673 2.92435 15.9441 3.00135 15.6808C3.16335 15.1267 3.71469 14.5017 4.29243 14.2172L4.78059 13.9771L26.0146 13.977L47.2486 13.9769L47.802 14.2763ZM8.41597 18.9281C7.97258 19.1491 7.65053 19.7698 7.74855 20.2139C7.78739 20.3896 7.97418 20.6812 8.1636 20.8617L8.50805 21.1901L10.9285 21.2271C12.2597 21.2475 13.5758 21.2303 13.8531 21.189C14.9465 21.0261 15.3793 19.9627 14.6723 19.1756L14.3391 18.8046L11.5592 18.7758C9.20277 18.7513 8.72386 18.7745 8.41597 18.9281ZM8.37929 23.777C8.22221 23.8546 7.99966 24.1091 7.88462 24.3426C7.70902 24.6992 7.69668 24.8302 7.80727 25.1634C7.87959 25.3815 8.07061 25.663 8.23158 25.7888C8.51559 26.011 8.68364 26.0178 13.8328 26.0178H19.1411L19.5442 25.6171C19.9111 25.2522 19.9414 25.1735 19.8826 24.7367C19.8363 24.394 19.7175 24.168 19.4663 23.9447L19.1146 23.6324L13.8898 23.6341C9.95747 23.6353 8.5943 23.6706 8.37929 23.777ZM51.5637 30.9024V36.9229H44.4684C36.5707 36.9229 36.6279 36.9276 35.2267 36.1563C33.3176 35.1055 32.1421 33.1034 32.1421 30.9024C32.1421 28.1927 33.8154 25.955 36.4834 25.0964C37.058 24.9114 37.7309 24.8936 44.3377 24.888L51.5637 24.8819V30.9024ZM37.0999 27.4216C34.9949 28.1073 33.9509 30.5497 34.9363 32.4832C35.589 33.764 36.7573 34.4791 38.1971 34.4791C39.644 34.4791 40.7931 33.7718 41.4761 32.4606C41.7393 31.9553 41.7854 31.7256 41.7884 30.9024C41.7912 30.1021 41.7437 29.8396 41.5109 29.3689C41.1535 28.6463 40.4598 27.955 39.7484 27.6125C39.0701 27.286 37.7978 27.1943 37.0999 27.4216ZM38.6952 29.8093C39.1548 30.0002 39.503 30.6482 39.3991 31.1189C39.3602 31.2946 39.1795 31.5804 38.9973 31.7539C38.3415 32.3787 37.193 32.0145 36.9951 31.1189C36.8948 30.6644 37.2393 30.0023 37.674 29.814C38.1235 29.6195 38.237 29.6189 38.6952 29.8093Z" fill="#D23166"/>
</svg>
