<svg width="53" height="53" viewBox="0 0 53 53" fill="none" xmlns="http://www.w3.org/2000/svg">
<path fill-rule="evenodd" clip-rule="evenodd" d="M28.9279 0.608248C27.9269 1.10567 27.8376 2.50884 28.7683 3.11213C28.9116 3.20498 29.6139 3.40954 30.3291 3.56677C32.5174 4.04774 33.5974 4.40156 35.5575 5.27986C38.3652 6.5379 40.8479 8.28661 43.1656 10.6386C46.5111 14.0337 48.705 18.1152 49.7282 22.8476C50.0044 24.125 50.0728 24.2838 50.4724 24.578C51.1114 25.0481 51.9066 25.0035 52.4251 24.4683C52.8916 23.9866 52.923 23.6724 52.6416 22.3053C50.5953 12.3676 42.9954 4.15209 33.1585 1.24403C32.038 0.912819 29.8785 0.431338 29.5143 0.431641C29.387 0.431641 29.1232 0.511164 28.9279 0.608248ZM9.22172 3.65154C7.91458 4.0652 6.82892 4.96469 3.76929 8.16894C1.57758 10.4644 0.97675 11.6208 0.773108 13.9359C0.483662 17.2269 1.60533 21.3935 4.07883 26.2161C5.12551 28.2568 5.59432 29.048 6.91942 31.0097C11.9208 38.4138 18.4761 44.3177 26.2222 48.3939C30.612 50.704 34.3211 51.8903 37.7001 52.0649C40.0889 52.1884 42.2106 51.5276 43.8045 50.1639C43.9914 50.0038 45.1637 48.8385 46.4094 47.5742C48.4721 45.481 48.713 45.1995 49.1056 44.4247C49.8765 42.9034 49.8786 41.5466 49.1125 39.9914C48.7005 39.155 48.5953 39.0399 44.904 35.3865C41.3209 31.8403 41.0766 31.6199 40.347 31.2764C38.7847 30.5409 37.1784 30.6122 35.6629 31.4841C35.4086 31.6304 34.251 32.6785 33.0904 33.8131L30.9805 35.8761L29.9644 35.3438C25.4796 32.9946 19.5834 27.1229 17.3921 22.8235L17.0002 22.0548L18.9616 20.0987C21.0525 18.0133 21.5551 17.3848 21.8927 16.4335C22.3483 15.1497 22.2565 13.9143 21.6088 12.616C21.2748 11.9464 20.9296 11.5743 17.4587 8.1421C13.5081 4.23535 13.19 3.97226 11.9892 3.61955C11.2584 3.4049 9.95376 3.41993 9.22172 3.65154ZM11.5085 6.58786C12.1475 6.88486 18.7399 13.4372 19.0219 14.0554C19.5521 15.218 19.3291 15.6014 16.5266 18.3444C15.2792 19.5655 14.1786 20.7205 14.0811 20.911C13.7946 21.4704 13.9162 22.4929 14.387 23.4836C15.6987 26.244 17.8239 29.0269 21.0626 32.2251C23.7204 34.8497 26.4534 36.8823 29.217 38.2898C30.3726 38.8785 30.5294 38.9314 31.1044 38.9266C31.5067 38.9234 31.8596 38.8551 32.0887 38.7362C32.2851 38.6343 33.4788 37.5411 34.7413 36.3071C36.0039 35.073 37.1935 33.9843 37.3848 33.8879C37.8949 33.6308 38.7877 33.7143 39.3024 34.067C40.0241 34.5618 46.2276 40.8164 46.4731 41.2969C46.7721 41.8822 46.7716 42.5428 46.4717 43.1263C46.2514 43.5549 42.9641 46.9651 41.8327 47.9385C40.1973 49.3456 37.8994 49.5155 34.1292 48.508C31.3751 47.772 27.1237 45.7335 23.6206 43.4692C16.1699 38.6532 9.35578 30.8501 5.9107 23.1886C3.69583 18.2631 3.14979 14.4864 4.31308 12.138C4.52274 11.7147 5.14571 11.0237 6.93697 9.22738C8.42348 7.73671 9.45455 6.78424 9.74511 6.63337C10.316 6.33698 10.9346 6.32103 11.5085 6.58786ZM28.4403 10.0182C27.7426 10.4389 27.4959 11.3489 27.9011 12.0064C28.1876 12.471 28.4372 12.5962 29.6705 12.8939C32.5001 13.577 34.7696 14.8598 36.7029 16.8693C38.5226 18.7607 39.7589 21.0349 40.3029 23.4913C40.5137 24.4429 40.6619 24.7621 41.0241 25.0439C41.8505 25.6869 43.1767 25.2129 43.3676 24.2065C43.5126 23.4412 42.7461 20.8104 41.8678 19.0588C39.5915 14.5201 35.4643 11.2516 30.5073 10.062C29.2696 9.76497 28.874 9.75659 28.4403 10.0182Z" fill="#D23166"/>
</svg>
