<svg width="55" height="36" viewBox="0 0 55 36" fill="none" xmlns="http://www.w3.org/2000/svg">
<path fill-rule="evenodd" clip-rule="evenodd" d="M5.80644 0.222592C5.12475 0.64509 5.08852 0.810447 5.05123 3.66824L5.01747 6.24381L4.19132 6.24423C3.56208 6.24454 3.28314 6.29293 3.02152 6.44736C2.03875 7.02751 1.99317 8.31301 2.9308 9.00534C3.26659 9.25333 3.45287 9.30401 4.17831 9.34469L5.03113 9.39246V10.94V12.4876H3.05849C1.18658 12.4876 1.06716 12.4997 0.720614 12.7238C-0.260972 13.3586 -0.236035 14.6131 0.772639 15.3429C1.04233 15.538 1.24849 15.5606 3.04742 15.5917L5.02554 15.626L5.0552 22.9802L5.08487 30.3345L5.32059 30.6987C5.73593 31.3404 5.84772 31.3699 8.07929 31.4272L10.1062 31.4792L10.3655 32.1036C11.0946 33.8591 12.9004 35.3628 14.862 35.8476C15.6827 36.0505 17.2725 36.0508 18.0953 35.8483C19.9822 35.384 21.6054 34.1107 22.4383 32.4418L22.8926 31.5312H30.5513H38.21L38.6731 32.4418C39.52 34.1066 41.1581 35.3891 43.0241 35.8483C43.8449 36.0503 45.4345 36.0506 46.2573 35.8489C48.2474 35.3613 50.1817 33.7026 50.8262 31.9313L50.9647 31.5508L52.371 31.515C53.9116 31.4758 54.2785 31.36 54.7333 30.7692C54.956 30.4802 54.9602 30.3834 54.9922 24.7335C55.015 20.7121 54.9886 18.8717 54.9043 18.5917C54.8075 18.2706 53.8186 17.2286 49.8959 13.3141C45.8696 9.2962 44.9379 8.4177 44.6094 8.32935C44.3801 8.26774 42.943 8.22195 41.2279 8.22164L38.2451 8.22102L38.2449 4.70887C38.2448 0.79005 38.2309 0.706591 37.5037 0.236224L37.1384 0L21.6491 0.0017689L6.15976 0.0035378L5.80644 0.222592ZM34.994 15.7396L34.9667 28.3573H29.0075H23.0483L22.8707 27.7783C22.2351 25.7056 20.3199 23.9048 18.183 23.3711C17.2097 23.128 15.5547 23.1525 14.6358 23.4234C12.4932 24.0554 10.7195 25.7445 10.1377 27.7069L9.96034 28.3053H9.10806H8.25578V21.9618V15.6182L12.6897 15.5879C17.6365 15.554 17.5683 15.5637 18.0396 14.8253C18.2327 14.5229 18.2685 14.3438 18.2287 13.8787C18.1867 13.3882 18.1224 13.2499 17.7842 12.9224L17.389 12.5397L12.8492 12.4876L8.30953 12.4356L8.27976 10.9046L8.25009 9.37352L13.278 9.34365C18.8871 9.31025 18.7452 9.32846 19.222 8.58149C19.6458 7.91767 19.4095 6.87464 18.7359 6.43591C18.5662 6.32539 17.4452 6.28491 13.4152 6.24381L8.30953 6.19178L8.27976 4.65684L8.25009 3.1219H21.6357H35.0213L34.994 15.7396ZM45.5384 13.4502C46.6974 14.6092 48.0787 15.9906 48.6083 16.5201L49.571 17.4827H43.9081H38.2451V14.4128V11.3429H40.8382H43.4313L45.5384 13.4502ZM51.7887 24.5138V28.4232L51.4989 28.3902C51.2416 28.3609 51.1756 28.2642 50.9084 27.5248C50.1632 25.463 48.4087 23.8933 46.2573 23.3638C45.4454 23.164 43.7454 23.1625 42.9746 23.3607C41.1592 23.8278 39.5233 25.1153 38.6928 26.7304L38.2451 27.601V24.1028V20.6046H45.0169H51.7887V24.5138ZM18.1253 26.6918C20.1566 27.7632 20.5185 30.418 18.8477 31.9901C17.9625 32.8229 16.5206 33.1147 15.2886 32.7102C14.5328 32.462 13.5154 31.4624 13.26 30.7168C13.0015 29.9626 13.0628 28.8448 13.3992 28.1774C13.7358 27.5095 14.5144 26.7915 15.1782 26.5369C16.0164 26.2155 17.3557 26.2858 18.1253 26.6918ZM46.1128 26.6218C47.6405 27.3472 48.3629 29.0052 47.8685 30.6518C47.6315 31.4409 46.6372 32.4453 45.8308 32.7102C44.1464 33.2632 42.3318 32.5626 41.5704 31.0651C40.6586 29.272 41.5329 27.1697 43.4801 26.4731C44.1104 26.2476 45.4886 26.3255 46.1128 26.6218Z" fill="#D23166"/>
</svg>
