<svg width="32" height="62" viewBox="0 0 32 62" fill="none" xmlns="http://www.w3.org/2000/svg">
<path fill-rule="evenodd" clip-rule="evenodd" d="M13.3504 0.167781C8.30415 0.971053 3.92028 4.19105 1.63634 8.77183C1.17712 9.69308 0.593366 11.4283 0.310823 12.7124C0.0614004 13.8461 0.0568233 14.1197 0.0174408 29.9904C-0.020376 45.2209 -0.0107407 46.1399 0.190508 46.5408C0.539531 47.2359 0.689473 47.2539 6.21459 47.2615L11.1826 47.2683V52.5812C11.1826 58.422 11.2051 58.6403 11.9243 59.7808C12.4225 60.5708 13.1204 61.1721 14.0582 61.6195C14.7782 61.9629 14.9673 62 16 62C17.03 62 17.2228 61.9624 17.9326 61.6238C19.2934 60.9746 20.107 60.0691 20.5685 58.6898C20.8052 57.9825 20.8174 57.6827 20.8174 52.6071V47.2683L25.7854 47.2615C31.3105 47.2539 31.4605 47.2359 31.8095 46.5408C32.0107 46.1399 32.0204 45.2209 31.9826 29.9904C31.9432 14.0752 31.9392 13.8492 31.6871 12.7124C30.576 7.70242 27.6463 3.85908 23.2325 1.62131C21.9695 0.981117 20.092 0.390636 18.619 0.170327C17.1061 -0.055802 14.7619 -0.0568932 13.3504 0.167781ZM18.3986 2.59239C23.0642 3.3542 27.046 6.62949 28.7114 11.0756C29.3351 12.741 29.4946 13.7832 29.5725 16.7032C29.6427 19.3404 29.6382 19.4178 29.4163 19.3217C28.342 18.8561 27.8263 18.7514 26.8372 18.7982C26.0098 18.8374 25.6591 18.9185 25.0244 19.2175C23.599 19.8891 22.5635 21.2487 22.274 22.8287C22.2016 23.2243 22.1422 24.5497 22.1422 25.7737C22.1422 27.7377 22.1148 28.0536 21.9085 28.4608C21.0151 30.2238 18.6875 30.3535 17.6006 28.7007L17.2646 28.1898L17.2042 21.6333C17.148 15.5151 17.1285 15.0403 16.9127 14.5311C16.1721 12.7843 14.7754 11.6589 12.9885 11.3692C10.9551 11.0395 8.79601 12.2221 7.88046 14.167L7.50927 14.9555L7.44207 17.7442C7.37077 20.7039 7.31778 20.9992 6.74884 21.605C5.35046 23.0941 2.94897 22.4286 2.50444 20.4287C2.27152 19.3811 2.42821 14.2891 2.73423 12.9549C3.9787 7.53097 8.19106 3.5077 13.5913 2.58536C14.8535 2.36978 17.055 2.37305 18.3986 2.59239ZM15.979 4.78736C15.4136 5.15619 15.2562 5.78002 15.5728 6.39645C15.791 6.82142 16.1817 6.97456 17.2988 7.07301C20.0605 7.31672 22.4151 8.9788 23.7042 11.5944C24.1575 12.5142 24.4492 12.7676 25.0546 12.7676C25.4489 12.7676 25.604 12.6943 25.888 12.3742C26.3658 11.836 26.3347 11.4583 25.7119 10.24C24.029 6.94716 20.924 4.88823 17.2711 4.64258C16.4786 4.58923 16.2422 4.61579 15.979 4.78736ZM13.5223 14.0822C13.7861 14.2291 14.1671 14.5857 14.3688 14.8748L14.7354 15.4004L14.7958 21.9678C14.852 28.0968 14.8714 28.5717 15.0873 29.081C16.0417 31.3318 18.2296 32.6222 20.4363 32.2353C22.0797 31.9472 23.4185 30.9348 24.1163 29.4522L24.4907 28.6566L24.5579 25.8679C24.6292 22.9082 24.6822 22.613 25.2512 22.0071C26.5708 20.6018 28.8943 21.1238 29.4318 22.9463C29.5822 23.4558 29.6092 25.1645 29.6092 34.1349V44.7221H16H2.39075V34.4636C2.39075 24.7393 2.40171 24.2099 2.60151 24.2972C3.64136 24.7522 4.17862 24.8604 5.16282 24.8139C5.9907 24.7747 6.3408 24.6936 6.97683 24.394C8.41254 23.7175 9.4342 22.3758 9.72602 20.7835C9.7984 20.3878 9.85777 19.0624 9.85777 17.8384C9.85777 15.8863 9.88607 15.5574 10.0876 15.1628C10.7703 13.8267 12.2353 13.3658 13.5223 14.0822ZM25.4382 13.8973C24.8441 14.3818 24.7569 15.0541 25.2166 15.6042C25.6068 16.071 26.101 16.1838 26.6363 15.928C27.7654 15.3886 27.3708 13.6877 26.1166 13.6877C25.8848 13.6877 25.5795 13.7821 25.4382 13.8973ZM18.3822 52.6535L18.3485 58.0388L17.9872 58.5536C17.4902 59.262 16.8529 59.5756 15.9169 59.5728C15.2859 59.5709 15.0931 59.5151 14.6616 59.2091C14.3812 59.0103 14.0256 58.6071 13.8715 58.3132L13.5913 57.7787V52.5236V47.2683H16.0036H18.4159L18.3822 52.6535Z" fill="#D23166"/>
</svg>
