<svg width="51" height="51" viewBox="0 0 51 51" fill="none" xmlns="http://www.w3.org/2000/svg">
<path fill-rule="evenodd" clip-rule="evenodd" d="M23.5803 0.0296612C23.3883 0.05199 22.805 0.118877 22.2841 0.178387C16.8181 0.802397 11.4821 3.42025 7.44057 7.46076C3.39877 11.5015 0.942133 16.4907 0.133991 22.3002C-0.0647294 23.7286 -0.0372097 27.5497 0.182051 28.9789C1.06896 34.7603 3.44982 39.5298 7.44057 43.5194C14.6783 50.7551 25.3126 52.948 34.9471 49.1915L35.9941 48.7833L42.3042 42.4945C49.2462 35.5762 48.769 36.1361 49.5228 34.0237C52.8268 24.7662 50.4885 14.4383 43.5089 7.46076C39.5414 3.49421 34.7399 1.08769 29.0643 0.221051C28.0703 0.069235 24.3559 -0.0603517 23.5803 0.0296612ZM28.9147 2.2119C33.9498 2.98823 38.4739 5.28241 42.0809 8.88841C43.9604 10.7674 45.3296 12.6583 46.5176 15.0157C47.2821 16.5329 47.8422 18.0278 48.2572 19.6587C48.8051 21.8122 48.9518 23.0586 48.9493 25.5399C48.9469 27.8967 48.8265 28.9857 48.3452 31.0042C48.1293 31.9098 48.0619 32.0723 47.924 32.0189C47.4734 31.8445 45.7555 31.4823 45.0765 31.4188C44.5727 31.3716 44.3222 31.308 44.3495 31.2344C44.3723 31.1726 44.4484 30.8961 44.5184 30.6198C44.6301 30.1795 44.6249 30.077 44.4761 29.7895C44.284 29.4181 43.7263 29.1334 43.3902 29.2352C42.9612 29.365 42.7245 29.7072 42.4646 30.573L42.2064 31.433L41.3437 31.5965C37.3044 32.3619 33.8754 35.0307 32.0945 38.7954C31.6548 39.725 31.229 41.0484 31.1061 41.8677C31.0366 42.331 31.0288 42.3394 30.5236 42.4858C25.4121 43.967 19.9956 43.1327 15.6036 40.1875C11.4371 37.3937 8.62253 32.9068 7.9104 27.9232C7.74728 26.7817 7.74728 24.1984 7.9104 23.0569C8.81646 16.7162 13.0458 11.3596 18.9978 9.01451C22.3278 7.70229 25.8686 7.42697 29.3618 8.20868C35.4751 9.57661 40.3658 14.0287 42.3325 20.0162C42.8298 21.5306 42.8472 21.5617 43.2705 21.7013C43.861 21.8962 44.463 21.5548 44.5742 20.9619C44.6556 20.5285 43.9669 18.4762 43.2242 16.9386C42.2458 14.9135 41.2028 13.419 39.6361 11.7975C37.9676 10.0707 36.204 8.7958 34.0352 7.74874C25.8281 3.78618 16.0626 5.94968 10.1971 13.0298C8.86213 14.6412 7.45224 17.2003 6.77591 19.2397C5.13719 24.1808 5.49286 29.4677 7.77779 34.1337C11.634 42.0084 20.1599 46.3811 28.7976 44.9145C29.4475 44.8042 30.1706 44.6563 30.4045 44.586L30.8296 44.4581L30.9462 45.5329C31.0104 46.1242 31.152 46.9563 31.2609 47.382C31.3699 47.8078 31.4249 48.1885 31.3833 48.2278C31.2791 48.3268 29.6117 48.6715 28.466 48.831C27.0563 49.0273 23.603 49.0004 22.1844 48.7822C19.4916 48.368 17.2859 47.6746 14.997 46.5229C12.6227 45.3281 10.7552 43.9779 8.86861 42.0917C5.82369 39.0477 3.73528 35.4068 2.69073 31.3215C2.13615 29.1525 2.00174 28.015 2.00174 25.4901C2.00174 23.826 2.04791 22.9515 2.18052 22.1009C3.88365 11.183 12.5501 3.05372 23.5803 2.02739C24.487 1.94296 27.9468 2.06268 28.9147 2.2119ZM33.4229 20.3489C32.3821 20.6283 31.624 21.6723 31.6179 22.8346C31.6138 23.6406 31.7934 24.1302 32.2931 24.6744C32.9939 25.4375 33.8254 25.6659 34.7351 25.3449C34.9614 25.2652 35.1465 25.2171 35.1465 25.2384C35.1465 25.2595 34.81 26.0755 34.3987 27.0516C33.5674 29.0248 33.4935 29.4287 33.8916 29.8267C34.2307 30.1657 34.5992 30.2353 35.0124 30.0383C35.2793 29.9111 35.4179 29.7358 35.6339 29.2524L35.912 28.63L36.0345 29.0004C36.2228 29.5705 36.9604 30.3282 37.5087 30.515C38.1481 30.7328 38.5984 30.7125 39.1855 30.4392C40.1888 29.9721 40.678 29.0879 40.6157 27.8539C40.585 27.246 40.5252 27.029 40.2775 26.6267C39.6892 25.6711 38.5735 25.207 37.6387 25.5289C37.3965 25.6124 37.1895 25.6714 37.1785 25.6601C37.1676 25.6489 37.5135 24.7913 37.9474 23.7546C38.3896 22.6977 38.7361 21.7258 38.7361 21.5422C38.7361 21.0777 38.3854 20.7062 37.8836 20.6388C37.3396 20.566 36.9703 20.8823 36.651 21.6945L36.4104 22.3062L36.1251 21.712C35.5797 20.576 34.5367 20.0499 33.4229 20.3489ZM17.9966 20.6941C17.0401 21.0043 16.1408 21.8499 15.8349 22.7269C15.6788 23.1742 15.6534 23.5828 15.6534 25.6396C15.6534 28.5709 15.7095 28.8035 16.6416 29.7354C17.0982 30.1919 17.3848 30.3874 17.7972 30.5244C19.6399 31.1362 21.5055 30.1657 22.0436 28.3156C22.1711 27.877 22.194 27.339 22.1673 25.4125C22.1353 23.108 22.1279 23.0339 21.8759 22.4996C21.5629 21.8363 20.9421 21.1972 20.3093 20.887C19.8091 20.6417 18.4958 20.5322 17.9966 20.6941ZM25.6624 20.7433C24.8375 21.038 24.1947 21.6057 23.7554 22.4276C23.5373 22.8356 23.5304 22.9337 23.5304 25.6396V28.4307L23.7961 28.9291C24.1522 29.5975 24.7023 30.1079 25.4192 30.4352C26.9708 31.1436 28.8713 30.4493 29.6346 28.8953L29.9118 28.331V25.6396C29.9118 22.9807 29.9088 22.9422 29.6661 22.4498C29.3214 21.7503 28.5875 21.0641 27.915 20.8126C27.2769 20.5738 26.227 20.5415 25.6624 20.7433ZM10.7951 20.8607C10.2259 21.1695 10.1348 21.9321 10.6104 22.4076C10.8553 22.6524 10.982 22.699 11.4035 22.699H11.905L11.9346 26.3456L11.9642 29.9923L12.3024 30.2943C12.5961 30.5566 12.6944 30.5891 13.05 30.5413C13.3225 30.5049 13.5346 30.3992 13.684 30.2256L13.9085 29.9646V25.6773C13.9085 22.9274 13.8717 21.3213 13.8058 21.1982C13.6068 20.8263 13.182 20.7051 12.0938 20.7093C11.383 20.7121 10.9831 20.7586 10.7951 20.8607ZM34.3077 22.5483C34.3978 22.9075 34.314 23.3174 34.1264 23.4348C33.8728 23.5936 33.611 23.2906 33.611 22.8382C33.611 22.2465 34.1732 22.0127 34.3077 22.5483ZM19.6711 22.8465C20.1696 23.2659 20.2041 23.4711 20.1708 25.817L20.1403 27.9694L19.8469 28.2755C19.1277 29.0254 17.9684 28.7635 17.6978 27.7901C17.5673 27.3204 17.5701 23.9487 17.7014 23.4761C17.9292 22.6563 19.0276 22.3052 19.6711 22.8465ZM27.5452 22.9403L27.9176 23.2814L27.9478 25.5268C27.9814 28.03 27.9406 28.235 27.3462 28.5422C26.9717 28.7359 26.4022 28.7563 26.0866 28.5875C25.9635 28.5216 25.7758 28.3249 25.6692 28.1502C25.4931 27.8614 25.4755 27.6354 25.4752 25.6595C25.4748 23.283 25.5225 23.0411 26.0494 22.7553C26.1994 22.6738 26.5136 22.6055 26.7475 22.6033C27.0956 22.6 27.2403 22.6612 27.5452 22.9403ZM43.7325 24.6324C43.1638 24.9475 43.0539 25.7351 43.5144 26.1955C43.9116 26.5925 44.3968 26.5934 44.8394 26.198C45.6946 25.4341 44.735 24.0769 43.7325 24.6324ZM38.4848 27.5458C38.6993 27.7602 38.6525 28.4688 38.4139 28.6182C38.0234 28.8629 37.6961 27.9455 38.0303 27.5428C38.1965 27.3426 38.2822 27.3432 38.4848 27.5458ZM45.3716 33.4716C46.0782 33.5699 47.4108 33.9208 47.4108 34.0086C47.4108 34.0293 47.3251 34.2405 47.2204 34.4781C47.0762 34.8051 45.5446 36.3912 40.9138 41.0086C35.0383 46.867 34.7723 47.1171 34.1572 47.3633C33.805 47.5041 33.4834 47.6195 33.4426 47.6195C33.4018 47.6195 33.2657 47.2045 33.1403 46.6974C32.9489 45.9237 32.913 45.5187 32.9172 44.1805C32.9216 42.7886 32.9553 42.4614 33.1819 41.6109C33.4948 40.4357 34.1515 39.0159 34.8482 38.0084C35.4364 37.1577 36.8337 35.7746 37.6393 35.2455C39.9611 33.7207 42.6789 33.0972 45.3716 33.4716Z" fill="#D23166"/>
</svg>
