<svg width="23" height="20" viewBox="0 0 23 20" fill="none" xmlns="http://www.w3.org/2000/svg">
<path fill-rule="evenodd" clip-rule="evenodd" d="M9.05598 0.0229328C8.77551 0.0835069 8.59979 0.218052 8.38917 0.533398C8.28096 0.695441 7.50791 1.90033 6.67127 3.211L5.15011 5.59399L3.57496 5.59544C2.70862 5.59623 1.86034 5.61442 1.68992 5.6359C0.907491 5.73447 0.267226 6.2817 0.0706641 7.01984C-0.0109523 7.32635 -0.026539 8.82832 0.0485644 9.14696C0.191449 9.75309 0.654017 10.2624 1.26823 10.4899C1.43465 10.5516 1.4895 10.5977 1.52494 10.7058C1.54969 10.7813 2.10631 12.6278 2.7619 14.809C3.41743 16.9902 4.00631 18.8762 4.0705 19C4.3224 19.4862 4.90239 19.8733 5.50344 19.9565C5.6978 19.9834 7.98782 20 11.5 20C15.0122 20 17.3022 19.9834 17.4966 19.9565C18.1038 19.8724 18.6775 19.4865 18.9356 18.9884C18.9964 18.8709 19.5826 16.9902 20.2382 14.809C20.8937 12.6278 21.4505 10.781 21.4753 10.7051C21.5128 10.5909 21.5649 10.5507 21.7771 10.4732C22.3418 10.2666 22.8128 9.73574 22.9508 9.15016C23.0265 8.82893 23.0114 7.32785 22.9294 7.01984C22.7656 6.40474 22.3152 5.93236 21.674 5.70324C21.4756 5.63234 21.2388 5.62004 19.6427 5.59751L17.8359 5.57203L16.2064 3.02335C15.3102 1.62158 14.5313 0.412557 14.4755 0.336653C14.3326 0.142016 14.0178 0.00338558 13.7246 0.00597722C13.1158 0.0113362 12.6821 0.542271 12.8098 1.12596C12.8368 1.2497 13.3023 2.0185 14.2119 3.44161L15.5735 5.57203L13.5368 5.58345C12.4166 5.58973 10.5835 5.58973 9.46325 5.58345L7.42652 5.57203L8.78813 3.44161C9.69772 2.0185 10.1632 1.2497 10.1903 1.12596C10.3362 0.45868 9.73685 -0.124132 9.05598 0.0229328ZM21.0676 8.11975V8.75667H11.5H1.93244V8.11975V7.48282H11.5H21.0676V8.11975ZM19.4955 10.6222C19.4955 10.6443 17.3677 17.7315 17.2894 17.9702L17.2426 18.1129H11.5H5.75745L5.71064 17.9702C5.63231 17.7315 3.50457 10.6443 3.50457 10.6222C3.50457 10.6108 7.10253 10.6016 11.5 10.6016C15.8975 10.6016 19.4955 10.6108 19.4955 10.6222Z" fill="#F6F6F6"/>
</svg>
