<svg width="38" height="30" viewBox="0 0 38 30" fill="none" xmlns="http://www.w3.org/2000/svg">
<path d="M33.5578 9.53568C31.8896 9.23928 30.3544 8.90108 28.7964 8.70728C26.9382 8.47548 25.0914 8.66168 23.3434 9.36848C20.938 10.3413 19.7144 12.1539 19.646 14.7455C19.5814 17.2535 20.7328 19.1041 23.123 20.1377C26.0262 21.3917 29.0244 21.2777 32.0378 20.5975C32.49 20.4949 32.9422 20.3771 33.5502 20.2289C33.5502 22.0605 33.573 23.7971 33.5198 25.5337C33.5122 25.7617 33.1588 26.0657 32.8928 26.1911C27.6108 28.6915 22.059 29.7593 16.226 29.2653C12.4488 28.9461 8.9034 27.9163 5.7114 25.7883C-1.5086 20.9699 -2.6904 9.23928 6.8856 3.74068C11.8066 0.917281 17.1456 0.244681 22.6898 0.788081C26.2048 1.13388 29.5298 2.17128 32.6952 3.74068C33.3716 4.07508 33.6034 4.48168 33.5768 5.21888C33.5198 6.65908 33.5578 8.09928 33.5578 9.53568ZM8.6906 23.4893C8.6906 23.0637 8.6868 22.7027 8.6906 22.3417C8.7134 19.0433 8.74 15.7411 8.7666 12.4427C8.7704 12.1045 8.759 11.7663 8.7932 11.4319C8.9148 10.2083 9.9864 9.26968 11.1986 9.30768C12.407 9.34568 13.338 10.2767 13.4026 11.5079C13.4672 12.6935 12.6084 13.7195 11.3734 13.8677C10.887 13.9247 10.3854 13.8791 9.8002 13.8791C9.8002 14.4833 9.8002 15.0153 9.8002 15.5473C9.8002 16.9457 10.089 17.1927 11.5292 17.0141C14.535 16.6417 16.7314 14.0387 16.4806 11.1469C16.2374 8.33488 13.6762 6.08528 10.8186 6.17648C7.866 6.27148 5.7114 8.57428 5.6962 11.6865C5.681 14.5137 5.6962 17.3447 5.7 20.1719C5.6962 22.2391 6.4068 23.0789 8.6906 23.4893Z" fill="#D23166"/>
<path d="M35.5491 18.044C34.0823 18.044 32.8131 18.044 31.4489 18.044C31.4489 16.98 31.4489 15.9502 31.4489 14.8102C30.7155 14.7608 30.0695 14.7152 29.3779 14.6696C29.3779 13.7386 29.3779 12.876 29.3779 11.8804C30.7345 11.8804 32.0341 11.8804 33.3375 11.8804C34.6143 11.8804 35.8873 11.8804 37.2439 11.8804C37.2439 12.838 37.2439 13.7196 37.2439 14.6734C36.7195 14.7076 36.1951 14.7418 35.5529 14.7874C35.5491 15.8628 35.5491 16.9154 35.5491 18.044Z" fill="#D23166"/>
</svg>
