<svg width="30" height="38" viewBox="0 0 30 38" fill="none" xmlns="http://www.w3.org/2000/svg">
<path fill-rule="evenodd" clip-rule="evenodd" d="M4.5668 0.194354C4.37898 0.384592 4.375 0.415308 4.375 1.66685V2.94508L2.1875 5.79603L0 8.64698V23.1292V37.6114L0.191797 37.8056L0.383515 38H10.573H20.7627L25.2446 36.0577C27.8595 34.9246 29.7835 34.047 29.8633 33.951C29.9923 33.7959 30 33.0727 30 21.2168V8.64698L27.8125 5.79603L25.625 2.94508V1.66685C25.625 0.415308 25.621 0.384592 25.4332 0.194354L25.2415 0H15H4.75852L4.5668 0.194354ZM24.375 1.9V2.53333H15H5.625V1.9V1.26667H15H24.375V1.9ZM23.6227 3.89896C23.4602 4.17454 20.3545 8.17309 20.281 8.20151C20.2339 8.21964 16.0868 8.22534 11.0652 8.2141L1.93508 8.19375L3.36078 6.33333C4.14484 5.3101 4.90711 4.32155 5.05469 4.13646L5.32297 3.8H14.502C21.8243 3.8 23.6693 3.82003 23.6227 3.89896ZM22.8323 32.6726L21.2891 35.127L21.2693 22.1084L21.2495 9.08976L22.7927 7.07718L24.3359 5.06453L24.3557 17.6414L24.3755 30.2183L22.8323 32.6726ZM27.2854 7.18192L28.7505 9.08968L28.7307 20.6948L28.7109 32.2998L27.168 31.1838L25.625 30.0679L25.6275 17.5474C25.6295 7.69033 25.6502 5.05337 25.7252 5.15058C25.7775 5.21851 26.4796 6.13265 27.2854 7.18192ZM20 11.4V13.3H10.625H1.25V11.4V9.5H10.625H20V11.4ZM20 23.1167V31.6667H10.625H1.25V23.1167V14.5667H10.625H20V23.1167ZM6.4418 16.0277C6.29703 16.1743 6.25031 16.3054 6.25133 16.5621C6.25453 17.3641 6.60312 18.4114 7.08219 19.0583L7.27195 19.3144L7.09781 19.5531C7.00211 19.6843 6.9143 19.7917 6.90281 19.7917C6.89133 19.7917 6.75469 19.7042 6.59914 19.5972C6.03227 19.2073 5.48375 19.0454 4.72656 19.0443C4.12039 19.0434 3.95883 19.0736 3.55492 19.2637C2.84117 19.5995 2.5 19.9944 2.5 20.4847C2.5 21.1367 3.43836 22.2389 4.27461 22.5693C4.62578 22.708 4.89453 22.7493 5.47992 22.7541L6.23328 22.7604L6.26688 24.1854C6.29461 25.3579 6.32891 25.6922 6.46055 26.0719L6.62055 26.5333L6.45539 26.8635C6.21062 27.353 6.22648 28.3894 6.48703 28.9354C6.72648 29.4372 7.1943 29.913 7.69531 30.1644L8.08594 30.3604H10.625H13.1641L13.6582 30.089C14.1948 29.7941 14.5124 29.457 14.7801 28.8983C15.0233 28.3905 15.0309 27.3359 14.7946 26.8635L14.6295 26.5333L14.7895 26.0719C14.9211 25.6922 14.9554 25.3579 14.9831 24.1854L15.0167 22.7604L15.7701 22.7541C16.3555 22.7493 16.6242 22.708 16.9754 22.5693C17.8266 22.233 18.75 21.1358 18.75 20.4608C18.75 19.6579 17.4871 18.919 16.2902 19.0216C15.7586 19.0672 15.07 19.309 14.6509 19.5972C14.4953 19.7042 14.3587 19.7917 14.3472 19.7917C14.3357 19.7917 14.2479 19.6843 14.1522 19.5531L13.978 19.3144L14.1677 19.0583C14.6222 18.4438 14.8968 17.6768 14.9723 16.8105C15.0191 16.2741 15.0109 16.233 14.8191 16.0386C14.5601 15.7762 14.1998 15.7662 13.9546 16.0146C13.8172 16.1539 13.7641 16.322 13.7256 16.7392C13.6927 17.0964 13.5967 17.4475 13.445 17.7651C13.0882 18.5126 13.1484 18.4869 12.4917 18.1709C11.3148 17.6044 9.93524 17.6044 8.75828 18.1709C8.10156 18.4869 8.1618 18.5126 7.805 17.7651C7.65328 17.4475 7.55734 17.0964 7.52437 16.7392C7.48594 16.322 7.43281 16.1539 7.29539 16.0146C7.05469 15.7707 6.68984 15.7763 6.4418 16.0277ZM11.9085 19.3024C12.6134 19.6367 13.0695 20.0913 13.4191 20.8082L13.7109 21.4063V23.4424C13.7109 24.5622 13.6847 25.505 13.6527 25.5375C13.6206 25.57 13.4976 25.5467 13.3792 25.4857C13.2129 25.4001 12.6364 25.369 10.8387 25.3489C8.8693 25.3268 8.44656 25.3424 8.07648 25.4515C7.83609 25.5223 7.61688 25.5573 7.5893 25.5294C7.56164 25.5013 7.53906 24.5641 7.53906 23.4466V21.4146L7.78633 20.8857C8.10023 20.2143 8.54719 19.7227 9.13016 19.4079C9.74555 19.0755 10.0823 19.0003 10.8007 19.035C11.2696 19.0576 11.5194 19.1179 11.9085 19.3024ZM5.63063 20.5043C6.3543 20.8726 6.55008 21.2811 6.08211 21.4464C5.47102 21.6623 4.60625 21.451 4.13141 20.9698C3.95922 20.7953 3.83148 20.6128 3.8475 20.564C3.95172 20.2471 5.05281 20.2102 5.63063 20.5043ZM17.1047 20.3771C17.2524 20.4313 17.3865 20.5154 17.4026 20.5643C17.4186 20.613 17.2848 20.7975 17.1052 20.9741C16.6138 21.4573 15.7766 21.6614 15.1679 21.4464C14.7215 21.2887 14.8941 20.8756 15.5464 20.541C16.1055 20.2542 16.6209 20.1999 17.1047 20.3771ZM13.1732 26.8028C13.583 27.1132 13.7109 27.3661 13.7109 27.8667C13.7109 28.3672 13.5831 28.6202 13.1732 28.9305C12.9697 29.0846 12.8367 29.0952 10.7952 29.1186C9.40734 29.1346 8.53047 29.113 8.34711 29.0583C7.55258 28.8213 7.24672 27.7237 7.79219 27.0668C8.16797 26.6143 8.25656 26.6008 10.7171 26.6211C12.8429 26.6386 12.9687 26.648 13.1732 26.8028ZM8.9418 27.4277C8.55422 27.8204 8.82883 28.5 9.375 28.5C9.69617 28.5 10 28.1921 10 27.8667C10 27.5412 9.69617 27.2333 9.375 27.2333C9.22281 27.2333 9.06266 27.3051 8.9418 27.4277ZM11.4418 27.4277C11.0542 27.8204 11.3288 28.5 11.875 28.5C12.1962 28.5 12.5 28.1921 12.5 27.8667C12.5 27.5412 12.1962 27.2333 11.875 27.2333C11.7228 27.2333 11.5627 27.3051 11.4418 27.4277ZM26.6711 32.3792C27.4259 32.9234 28.0442 33.3881 28.0452 33.4117C28.047 33.4593 22.3336 35.9592 22.3029 35.9242C22.2859 35.9049 22.9591 34.8204 24.6764 32.1007C24.9414 31.6809 25.1898 31.3492 25.2285 31.3635C25.2671 31.3779 25.9163 31.8349 26.6711 32.3792ZM20 34.8333V36.7333H10.625H1.25V34.8333V32.9333H10.625H20V34.8333Z" fill="#D23166"/>
</svg>
