<svg width="38" height="25" viewBox="0 0 38 25" fill="none" xmlns="http://www.w3.org/2000/svg">
<path fill-rule="evenodd" clip-rule="evenodd" d="M28.2372 0.0230122C25.4954 0.307576 23.8827 0.710321 22.216 1.52689C21.1689 2.03993 20.4591 2.53224 19.6568 3.30198C18.5792 4.33572 17.7734 5.73349 17.3848 7.24276C17.1279 8.24074 17.0628 9.9425 17.2438 10.928C17.4026 11.7927 17.7456 12.7866 18.1098 13.4376C18.2694 13.7231 18.4001 13.9769 18.4001 14.0015C18.4001 14.0263 18.2021 14.5628 17.9601 15.1937C17.7181 15.8247 17.4001 16.7664 17.2534 17.2864C17.1068 17.8064 16.9679 18.2831 16.9449 18.3457C16.9146 18.4283 16.7951 18.3358 16.51 18.009L16.1169 17.5582L16.2871 17.0467C16.6693 15.8978 16.7137 14.2879 16.3948 13.1463C15.7631 10.8855 14.1519 9.27349 11.693 8.44211C10.6448 8.08772 9.73699 7.94289 8.26603 7.89545C5.81753 7.81651 3.34682 8.25144 1.00931 9.17307C0.29265 9.45566 0.0709628 9.64276 0.0132024 10.0139C-0.0473049 10.4021 0.0800946 10.5737 0.818952 11.0997C1.94454 11.9011 2.78652 12.9061 3.36278 14.1362C3.5005 14.4301 3.80259 15.3011 4.03408 16.0717C4.66224 18.1624 5.06404 18.9227 6.0185 19.8262C7.1446 20.8921 8.43916 21.3905 10.0767 21.3885C11.8334 21.3864 13.3948 20.756 14.6563 19.5397L15.268 18.95L15.5987 19.3499C16.8217 20.829 17.9703 22.8166 18.5216 24.4079L18.7267 25L19.4543 24.8134C19.9448 24.6877 20.1819 24.592 20.1819 24.5199C20.1819 24.461 20.0284 24.0126 19.8409 23.5236C19.488 22.6036 18.9655 21.5455 18.452 20.7111L18.1559 20.2301L18.2509 19.6864C18.4336 18.6408 19.2579 15.8778 19.5099 15.4663C19.5638 15.3784 19.6363 15.4125 19.8858 15.643C20.5331 16.2408 21.6032 16.8603 22.5941 17.211C26.1967 18.4857 30.0418 17.2867 31.9502 14.2933C32.6696 13.1651 32.9005 12.4762 33.3994 9.97157C33.7533 8.19459 34.0113 7.34781 34.4961 6.37335C35.1706 5.01764 35.8743 4.15582 37.5826 2.59342C37.8911 2.31128 38 2.1591 38 2.0101C38 1.70405 37.8784 1.44067 37.6738 1.30366C37.2338 1.00885 34.6281 0.388565 32.8773 0.161764C32 0.048136 28.891 -0.0448458 28.2372 0.0230122ZM32.9515 1.75817C33.7321 1.87059 35.0909 2.12881 35.4286 2.22885C35.547 2.264 35.5143 2.32586 35.1998 2.66044C34.6262 3.27094 34.1919 3.83096 33.7489 4.53124C32.7887 6.04917 32.4234 7.05793 31.9068 9.6168C31.3518 12.3665 30.9934 13.2352 29.9743 14.3012C28.187 16.1707 25.3379 16.6592 22.6466 15.5577C22.0402 15.3095 20.9997 14.6047 20.5636 14.1467L20.2401 13.807L20.5958 13.1351C22.6726 9.21238 25.859 6.51051 29.6232 5.48065C29.9943 5.37909 30.3077 5.28603 30.3197 5.27389C30.3315 5.26167 30.2711 4.91752 30.1854 4.50893L30.0294 3.76613L29.8014 3.81653C27.2272 4.38536 24.6867 5.78593 22.6289 7.77051C21.6739 8.69168 20.386 10.3822 19.5494 11.8128L19.2638 12.3011L19.1236 11.9647C18.4536 10.3578 18.5496 7.94927 19.3487 6.31498C20.6677 3.61736 23.5142 2.08752 28.0887 1.6176C28.8006 1.54443 32.1374 1.6409 32.9515 1.75817ZM9.49296 9.54386C12.977 9.98061 15.0604 12.0129 15.0587 14.9729C15.0585 15.3877 15.0236 15.8548 14.9812 16.0109L14.9041 16.2949L14.1511 15.6474C12.2905 14.0476 10.1984 12.7443 7.83283 11.7112C6.63048 11.1862 6.74726 11.1642 6.45482 11.971C6.3102 12.3701 6.23195 12.6903 6.26996 12.728C6.30611 12.764 6.60301 12.9009 6.92967 13.0322C9.22665 13.9556 11.9715 15.7035 13.7228 17.3579L14.2054 17.8137L13.6357 18.3725C13.0045 18.9915 12.1949 19.4541 11.3471 19.68C10.7743 19.8325 9.48316 19.8533 8.93421 19.7187C8.21948 19.5434 7.49993 19.1238 6.94987 18.5614C6.31064 17.9079 5.9352 17.1347 5.48188 15.5387C4.90323 13.5016 4.24426 12.2586 3.07948 11.0072C2.55889 10.4479 2.45837 10.3043 2.56513 10.2723C3.00197 10.1416 4.17477 9.8411 4.55393 9.76276C5.87989 9.48875 8.22431 9.38484 9.49296 9.54386Z" fill="#D23166"/>
</svg>
